<svg id="Ebene_1" data-name="Ebene 1" xmlns="http://www.w3.org/2000/svg" viewBox="0 0 973.38 161"><defs><style>.cls-1{fill:#fff;}.cls-2{stroke:#000;stroke-miterlimit:10;}</style></defs><rect width="161" height="161" rx="28.16"/><path class="cls-1" d="M300.81,417.64h-54a22.59,22.59,0,0,1,0-45.17h61.44a14.53,14.53,0,1,0,0-29.06H254.07v-8.05h54.15a22.59,22.59,0,0,1,0,45.17H246.78a14.53,14.53,0,1,0,0,29.06h54Z" transform="translate(-197 -296)"/><path class="cls-1" d="M313.38,431a17.43,17.43,0,1,1,17.42-17.42A17.44,17.44,0,0,1,313.38,431Zm0-26.8a9.38,9.38,0,1,0,9.37,9.38A9.38,9.38,0,0,0,313.38,404.24Z" transform="translate(-197 -296)"/><path class="cls-1" d="M241.5,356.81a17.43,17.43,0,1,1,17.43-17.43A17.45,17.45,0,0,1,241.5,356.81Zm0-26.8a9.38,9.38,0,1,0,9.37,9.37A9.39,9.39,0,0,0,241.5,330Z" transform="translate(-197 -296)"/><path class="cls-2" d="M425.89,406a30.25,30.25,0,0,1-15.25-3.8,27.39,27.39,0,0,1-10.49-10.49,33.15,33.15,0,0,1,0-30.82,27.39,27.39,0,0,1,10.49-10.49,32.4,32.4,0,0,1,30.45,0,28,28,0,0,1,10.49,10.49,33,33,0,0,1,.05,30.82,27.51,27.51,0,0,1-10.43,10.49A30.22,30.22,0,0,1,425.89,406Zm0-8.88a19.68,19.68,0,0,0,10.28-2.68,19.13,19.13,0,0,0,7.06-7.33,21.93,21.93,0,0,0,2.57-10.76,22.26,22.26,0,0,0-2.57-10.81,19,19,0,0,0-7.06-7.38,21.06,21.06,0,0,0-20.56,0,19,19,0,0,0-7.06,7.38A22.26,22.26,0,0,0,406,376.37a21.93,21.93,0,0,0,2.57,10.76,19.13,19.13,0,0,0,7.06,7.33A19.68,19.68,0,0,0,425.89,397.14Z" transform="translate(-197 -296)"/><path class="cls-2" d="M476.73,430.64a4.77,4.77,0,0,1-5-5V376.27a30.57,30.57,0,0,1,4-15.2,28.61,28.61,0,0,1,10.55-10.6,29,29,0,0,1,14.87-3.85,29.74,29.74,0,0,1,15.26,3.9A29,29,0,0,1,527,361.12a29.64,29.64,0,0,1,3.91,15.25,31.12,31.12,0,0,1-3.69,15.2,27.76,27.76,0,0,1-10,10.6,28.2,28.2,0,0,1-26.33,1.12,26.09,26.09,0,0,1-9.1-7.44v29.76a4.77,4.77,0,0,1-5,5Zm24.51-33.5a19.22,19.22,0,0,0,10.17-2.73,19.81,19.81,0,0,0,7.12-7.44,21.39,21.39,0,0,0,2.62-10.6,21.61,21.61,0,0,0-2.62-10.7,19.81,19.81,0,0,0-7.12-7.44,20.31,20.31,0,0,0-20.34,0,19.43,19.43,0,0,0-7.06,7.44A23.46,23.46,0,0,0,484,387a18.89,18.89,0,0,0,7.06,7.44A19.46,19.46,0,0,0,501.24,397.14Z" transform="translate(-197 -296)"/><path class="cls-2" d="M574.24,406a31.62,31.62,0,0,1-15.63-3.8,27.46,27.46,0,0,1-10.7-10.49,30.2,30.2,0,0,1-3.85-15.36,31.9,31.9,0,0,1,3.63-15.46,26.73,26.73,0,0,1,10.12-10.49,28.78,28.78,0,0,1,14.82-3.8,26.88,26.88,0,0,1,14.29,3.69,24.29,24.29,0,0,1,9.26,10.17,33.19,33.19,0,0,1,3.21,14.93,4.21,4.21,0,0,1-1.28,3.16,4.62,4.62,0,0,1-3.32,1.23H550.91v-8h44l-4.5,3.11a23,23,0,0,0-2.14-10.12,16.93,16.93,0,0,0-6.1-7,17.16,17.16,0,0,0-9.53-2.57,19.74,19.74,0,0,0-10.54,2.73,17.51,17.51,0,0,0-6.74,7.55,24.92,24.92,0,0,0-2.3,10.91,21.48,21.48,0,0,0,2.73,10.87,19.81,19.81,0,0,0,7.49,7.49,21.65,21.65,0,0,0,11,2.73,21,21,0,0,0,7.12-1.29,21.55,21.55,0,0,0,5.83-3,5.81,5.81,0,0,1,3.21-1.13,4.38,4.38,0,0,1,3,1,4.74,4.74,0,0,1,1.82,3.27,3.48,3.48,0,0,1-1.61,3.05,29,29,0,0,1-9,4.76A32,32,0,0,1,574.24,406Z" transform="translate(-197 -296)"/><path class="cls-2" d="M618.34,405.7a4.82,4.82,0,0,1-3.64-1.44,5,5,0,0,1-1.4-3.59V352.08a5,5,0,1,1,10.07,0v48.59a5,5,0,0,1-1.4,3.59A4.81,4.81,0,0,1,618.34,405.7Zm44.63,0a4.92,4.92,0,0,1-5-5V373.8a20.42,20.42,0,0,0-2.3-10.22,14.66,14.66,0,0,0-6.32-6,20.15,20.15,0,0,0-9-2,18.73,18.73,0,0,0-8.62,1.93,16.1,16.1,0,0,0-6,5.13,12.45,12.45,0,0,0-2.24,7.28h-6.53a22.93,22.93,0,0,1,3.42-12,23.63,23.63,0,0,1,9-8.35A26.51,26.51,0,0,1,642,346.51a27.56,27.56,0,0,1,13.27,3.16,22.92,22.92,0,0,1,9.31,9.26Q668,365,668,373.8v26.87a4.94,4.94,0,0,1-5,5Z" transform="translate(-197 -296)"/><path class="cls-2" d="M744,406a29.33,29.33,0,0,1-15-3.9,28.93,28.93,0,0,1-10.59-10.65,29.74,29.74,0,0,1-3.91-15.2,31.14,31.14,0,0,1,3.64-15.15,28,28,0,0,1,9.95-10.6,26.56,26.56,0,0,1,14.24-3.9,27,27,0,0,1,12.15,2.73,24.94,24.94,0,0,1,9,7.44V327a4.81,4.81,0,0,1,1.45-3.64,5.38,5.38,0,0,1,7.22,0,4.91,4.91,0,0,1,1.39,3.64v49.34a29.78,29.78,0,0,1-3.9,15.2,28.53,28.53,0,0,1-10.6,10.6A29.56,29.56,0,0,1,744,406Zm0-8.88a19.1,19.1,0,0,0,10.22-2.73,19.91,19.91,0,0,0,7.07-7.49,21.71,21.71,0,0,0,2.62-10.65,21.28,21.28,0,0,0-2.62-10.65,20.07,20.07,0,0,0-7.07-7.39,20.29,20.29,0,0,0-20.33,0,19.64,19.64,0,0,0-7.17,7.39,21.29,21.29,0,0,0-2.63,10.65,21.72,21.72,0,0,0,2.63,10.65,19.49,19.49,0,0,0,7.17,7.49A19.26,19.26,0,0,0,744,397.14Z" transform="translate(-197 -296)"/><path class="cls-2" d="M820,406a31.62,31.62,0,0,1-15.63-3.8,27.46,27.46,0,0,1-10.7-10.49,30.21,30.21,0,0,1-3.86-15.36,31.9,31.9,0,0,1,3.64-15.46,26.73,26.73,0,0,1,10.12-10.49,28.75,28.75,0,0,1,14.82-3.8,26.88,26.88,0,0,1,14.29,3.69,24.29,24.29,0,0,1,9.26,10.17,33.19,33.19,0,0,1,3.21,14.93,4.18,4.18,0,0,1-1.29,3.16,4.58,4.58,0,0,1-3.31,1.23H796.65v-8h44l-4.49,3.11A23.11,23.11,0,0,0,834,364.76a16.93,16.93,0,0,0-6.1-7,17.16,17.16,0,0,0-9.53-2.57,19.72,19.72,0,0,0-10.54,2.73,17.59,17.59,0,0,0-6.75,7.55,25.06,25.06,0,0,0-2.3,10.91,21.48,21.48,0,0,0,2.73,10.87,19.9,19.9,0,0,0,7.5,7.49,21.65,21.65,0,0,0,11,2.73,20.89,20.89,0,0,0,7.11-1.29,21.62,21.62,0,0,0,5.84-3,5.81,5.81,0,0,1,3.21-1.13,4.38,4.38,0,0,1,3,1,4.72,4.72,0,0,1,1.81,3.27,3.45,3.45,0,0,1-1.6,3.05,29.08,29.08,0,0,1-9,4.76A32,32,0,0,1,820,406Z" transform="translate(-197 -296)"/><path class="cls-2" d="M883.35,406a29.45,29.45,0,0,1-15.2-3.9,28.37,28.37,0,0,1-10.43-10.6,30.06,30.06,0,0,1-3.8-15.15A31.58,31.58,0,0,1,857.61,361a27,27,0,0,1,10.17-10.54,28.75,28.75,0,0,1,14.82-3.8,26.55,26.55,0,0,1,21.19,9.85,3.45,3.45,0,0,1,1,3.21,5,5,0,0,1-2.19,3,3.86,3.86,0,0,1-3,.65,5.87,5.87,0,0,1-3.05-1.72,18.09,18.09,0,0,0-13.92-6.1,18.73,18.73,0,0,0-10,2.62,18,18,0,0,0-6.69,7.34,23.6,23.6,0,0,0-2.41,10.91A22.1,22.1,0,0,0,866.06,387a18.95,18.95,0,0,0,17.29,10.12,22.6,22.6,0,0,0,6.9-1,15.35,15.35,0,0,0,5.52-3.1,5.83,5.83,0,0,1,3.26-1.39,4,4,0,0,1,2.94,1,4.62,4.62,0,0,1,1.88,3.16,3.58,3.58,0,0,1-1.23,3.05Q894.91,406,883.35,406Z" transform="translate(-197 -296)"/><path class="cls-2" d="M927.34,337a6.8,6.8,0,0,1-6.64-6.64,6.22,6.22,0,0,1,2-4.76,6.7,6.7,0,0,1,9.31,0,6.25,6.25,0,0,1,2,4.76,6.46,6.46,0,0,1-1.93,4.65A6.28,6.28,0,0,1,927.34,337Zm0,68.6a4.77,4.77,0,0,1-5-5V352.08a5,5,0,1,1,10.06,0v48.48a4.77,4.77,0,0,1-5,5Z" transform="translate(-197 -296)"/><path class="cls-2" d="M973.9,406a39.57,39.57,0,0,1-13.38-2.25,25.37,25.37,0,0,1-9.95-6,4.22,4.22,0,0,1-1.23-3.59,4.73,4.73,0,0,1,2-3.26,5.2,5.2,0,0,1,3.85-1.28,4.79,4.79,0,0,1,3.21,1.71,17.53,17.53,0,0,0,6.21,4.07,23.24,23.24,0,0,0,9.1,1.71q6.73,0,10.11-2.25a6.92,6.92,0,0,0,3.48-5.67,7.08,7.08,0,0,0-3.32-5.84q-3.32-2.4-11.67-3.9-10.8-2-15.73-6.32a14,14,0,0,1-1.82-19.42,18.75,18.75,0,0,1,8.08-5.36,33.76,33.76,0,0,1,23,.54,21.33,21.33,0,0,1,8.62,6.37,4.76,4.76,0,0,1,1.18,3.32,3.75,3.75,0,0,1-1.82,2.89,4.65,4.65,0,0,1-3.64.69,7,7,0,0,1-3.64-1.76,15,15,0,0,0-5.89-3.91,22.66,22.66,0,0,0-7.49-1.12,17,17,0,0,0-8.45,1.87,5.74,5.74,0,0,0-3.32,5.19,6.4,6.4,0,0,0,1.12,3.69,9.24,9.24,0,0,0,4.17,3,45.59,45.59,0,0,0,8.94,2.35,44.66,44.66,0,0,1,12.69,4,16.92,16.92,0,0,1,6.63,5.78,14.08,14.08,0,0,1,2,7.44,15.2,15.2,0,0,1-2.73,8.94,18.11,18.11,0,0,1-7.81,6.15A30.79,30.79,0,0,1,973.9,406Z" transform="translate(-197 -296)"/><path class="cls-2" d="M1017.25,337a6.78,6.78,0,0,1-6.64-6.64,6.25,6.25,0,0,1,2-4.76,6.7,6.7,0,0,1,9.31,0,6.25,6.25,0,0,1,2,4.76A6.45,6.45,0,0,1,1022,335,6.31,6.31,0,0,1,1017.25,337Zm0,68.6a4.77,4.77,0,0,1-5-5V352.08a5,5,0,1,1,10.06,0v48.48a4.77,4.77,0,0,1-5,5Z" transform="translate(-197 -296)"/><path class="cls-2" d="M1069.37,406a30.25,30.25,0,0,1-15.25-3.8,27.39,27.39,0,0,1-10.49-10.49,33.15,33.15,0,0,1,0-30.82,27.39,27.39,0,0,1,10.49-10.49,32.4,32.4,0,0,1,30.45,0,28,28,0,0,1,10.49,10.49,33,33,0,0,1,0,30.82,27.51,27.51,0,0,1-10.43,10.49A30.22,30.22,0,0,1,1069.37,406Zm0-8.88a19.65,19.65,0,0,0,10.28-2.68,19.13,19.13,0,0,0,7.06-7.33,21.93,21.93,0,0,0,2.57-10.76,22.26,22.26,0,0,0-2.57-10.81,19,19,0,0,0-7.06-7.38,21,21,0,0,0-20.55,0,19,19,0,0,0-7.07,7.38,22.26,22.26,0,0,0-2.57,10.81,21.93,21.93,0,0,0,2.57,10.76,19.16,19.16,0,0,0,7.07,7.33A19.62,19.62,0,0,0,1069.37,397.14Z" transform="translate(-197 -296)"/><path class="cls-2" d="M1120.21,405.7a4.84,4.84,0,0,1-3.64-1.44,5,5,0,0,1-1.39-3.59V352.08a5,5,0,1,1,10.06,0v48.59a5,5,0,0,1-1.39,3.59A4.84,4.84,0,0,1,1120.21,405.7Zm44.64,0a4.94,4.94,0,0,1-5-5V373.8a20.32,20.32,0,0,0-2.3-10.22,14.63,14.63,0,0,0-6.31-6,20.19,20.19,0,0,0-9-2,18.68,18.68,0,0,0-8.61,1.93,16,16,0,0,0-6,5.13,12.38,12.38,0,0,0-2.25,7.28h-6.53a22.93,22.93,0,0,1,3.43-12,23.63,23.63,0,0,1,9-8.35,26.51,26.51,0,0,1,12.74-3.05,27.59,27.59,0,0,1,13.27,3.16,23,23,0,0,1,9.31,9.26,30,30,0,0,1,3.43,14.87v26.87a4.94,4.94,0,0,1-5,5Z" transform="translate(-197 -296)"/></svg>