<svg width="23" height="14" viewBox="0 0 23 14" fill="none" xmlns="http://www.w3.org/2000/svg">
<path d="M0.239136 12.7037H1.79469V1.2963H0.239136V0H4.9058V1.2963H3.35025V6.22222H10.3502V1.2963H8.79469V0H13.4614V1.2963H11.9058V12.7037H13.4614V14H8.79469V12.7037H10.3502V7.51852H3.35025V12.7037H4.9058V14H0.239136V12.7037Z" fill="#11181C"/>
<path d="M22.803 11.1481V14H15.0253V12.8333C16.65 11.5198 18.0067 10.1889 19.0956 8.84074C20.1845 7.47531 20.729 6.32593 20.729 5.39259C20.729 4.77037 20.5821 4.27778 20.2882 3.91481C19.9944 3.55185 19.45 3.37037 18.6549 3.37037C17.9808 3.37037 17.3067 3.51728 16.6327 3.81111V5.7037H15.2845V3.05926C16.4771 2.40247 17.6611 2.07407 18.8364 2.07407C19.9771 2.07407 20.85 2.35926 21.4549 2.92963C22.0598 3.48272 22.3623 4.25185 22.3623 5.23704C22.3623 6.36049 21.8092 7.61358 20.703 8.9963C19.6142 10.379 18.4129 11.5975 17.0993 12.6519V12.7037H21.4549V11.1481H22.803Z" fill="#11181C"/>
</svg>
