<svg width="24" height="17" viewBox="0 0 24 17" fill="none" xmlns="http://www.w3.org/2000/svg">
<path d="M0.80304 12.7094H2.35929V1.29687H0.80304V0H5.47179V1.29687H3.91554V6.225H10.9187V1.29687H9.36242V0H14.0312V1.29687H12.4749V12.7094H14.0312V14.0063H9.36242V12.7094H10.9187V7.52188H3.91554V12.7094H5.47179V14.0063H0.80304V12.7094Z" fill="#11181C"/>
<path d="M15.077 14.8363C16.0626 15.1302 17.0656 15.2772 18.0858 15.2772C19.2789 15.2772 20.1867 15.0351 20.8092 14.5509C21.4317 14.0841 21.743 13.3751 21.743 12.4241C21.743 11.5249 21.4404 10.8678 20.8351 10.4528C20.2472 10.0378 19.3567 9.83031 18.1636 9.83031H17.4114V8.55938H17.9301C18.9676 8.55938 19.7717 8.3 20.3423 7.78125C20.9303 7.2625 21.2242 6.5449 21.2242 5.62844C21.2242 4.90219 21.0254 4.34885 20.6276 3.96844C20.2299 3.57073 19.6074 3.37188 18.7601 3.37188C17.9993 3.37188 17.3076 3.50156 16.6851 3.76094V5.44688H15.3364V2.98281C16.4776 2.3776 17.6535 2.075 18.8639 2.075C20.1089 2.075 21.0859 2.3949 21.7948 3.03469C22.5038 3.67448 22.8583 4.50448 22.8583 5.52469C22.8583 7.06365 22.0283 8.21354 20.3683 8.97438V9.02625C22.3741 9.45854 23.377 10.5911 23.377 12.4241C23.377 13.0293 23.256 13.5826 23.0139 14.0841C22.7891 14.6028 22.4519 15.0438 22.0023 15.4069C21.5528 15.7873 20.9908 16.0813 20.3164 16.2888C19.642 16.4963 18.8725 16.6 18.008 16.6C16.9705 16.6 15.9935 16.4617 15.077 16.185V14.8363Z" fill="#11181C"/>
</svg>
