<svg width="32" height="32" viewBox="0 0 32 32" fill="none" xmlns="http://www.w3.org/2000/svg">
<path d="M13.8831 10.2532C14.4294 9.70691 15.2275 9.53226 16 9.53226C16.7725 9.53226 17.5706 9.70691 18.1169 10.2532L18.2468 10.3831C19.1774 11.3137 20.6863 11.3137 21.6169 10.3831C22.5476 9.45242 22.5313 7.9273 21.6007 6.99666C20.99 6.38594 20.7904 5.48212 20.7639 4.61885C20.7279 3.44864 20.2633 2.28915 19.3702 1.39597C17.5089 -0.465322 14.4911 -0.465322 12.6298 1.39597C11.8478 2.17803 11.3943 3.16427 11.2695 4.1831C11.1315 5.3089 10.9017 6.49424 10.0997 7.29626L7.29626 10.0997C6.49424 10.9017 5.30891 11.1315 4.1831 11.2695C3.16427 11.3943 2.17803 11.8478 1.39597 12.6298C-0.465322 14.4911 -0.465322 17.5089 1.39597 19.3702C3.25726 21.2314 6.275 21.2315 8.13629 19.3702C8.91836 18.5881 9.37182 17.6019 9.49668 16.583C9.63464 15.4572 9.8644 14.2719 10.6664 13.4699L13.8831 10.2532Z" fill="#016CCF"/>
<path d="M19.3702 30.604C17.5089 32.4653 14.4911 32.4653 12.6298 30.604C11.7367 29.7108 11.2721 28.5514 11.2361 27.3811C11.2096 26.5179 11.01 25.6141 10.3993 25.0033C9.46867 24.0727 9.45242 22.5476 10.3831 21.6169C11.3137 20.6863 12.8226 20.6863 13.7532 21.6169L13.8831 21.7468C14.4294 22.2931 15.2275 22.4677 16 22.4677C16.7725 22.4677 17.5706 22.2931 18.1169 21.7468L21.3336 18.5301C22.1356 17.7281 22.3654 16.5428 22.5033 15.417C22.6282 14.3981 23.0816 13.4119 23.8637 12.6298C25.725 10.7685 28.7427 10.7685 30.604 12.6298C32.4653 14.4911 32.4653 17.5089 30.604 19.3702C29.822 20.1522 28.8357 20.6057 27.8169 20.7305C26.6911 20.8685 25.5058 21.0983 24.7037 21.9003L21.9003 24.7037C21.0983 25.5058 20.8685 26.6911 20.7305 27.8169C20.6057 28.8357 20.1522 29.822 19.3702 30.604Z" fill="#016CCF"/>
</svg>
