<?xml version="1.0" encoding="utf-8"?>
<!-- Generator: Adobe Illustrator 26.4.1, SVG Export Plug-In . SVG Version: 6.00 Build 0)  -->
<svg version="1.1" id="Ebene_1" xmlns="http://www.w3.org/2000/svg" xmlns:xlink="http://www.w3.org/1999/xlink" viewBox="-1 -1 34 34">
	<style type="text/css">
		.st0 {
			fill: none;
			stroke: #000000;
			stroke-miterlimit: 10;
		}
	</style>
	<path class="st0" d="M13.9,10.3c0.5-0.5,1.3-0.7,2.1-0.7c0.8,0,1.6,0.2,2.1,0.7l0.1,0.1c0.9,0.9,2.4,0.9,3.4,0
	c0.9-0.9,0.9-2.5,0-3.4c-0.6-0.6-0.8-1.5-0.8-2.4c0-1.2-0.5-2.3-1.4-3.2c-1.9-1.9-4.9-1.9-6.7,0c-0.8,0.8-1.2,1.8-1.4,2.8
	c-0.1,1.1-0.4,2.3-1.2,3.1l-2.8,2.8c-0.8,0.8-2,1-3.1,1.2c-1,0.1-2,0.6-2.8,1.4c-1.9,1.9-1.9,4.9,0,6.7c1.9,1.9,4.9,1.9,6.7,0
	c0.8-0.8,1.2-1.8,1.4-2.8c0.1-1.1,0.4-2.3,1.2-3.1L13.9,10.3z" />
	<path class="st0" d="M19.4,30.6c-1.9,1.9-4.9,1.9-6.7,0c-0.9-0.9-1.4-2.1-1.4-3.2c0-0.9-0.2-1.8-0.8-2.4c-0.9-0.9-0.9-2.5,0-3.4
	c0.9-0.9,2.4-0.9,3.4,0l0.1,0.1c0.5,0.5,1.3,0.7,2.1,0.7c0.8,0,1.6-0.2,2.1-0.7l3.2-3.2c0.8-0.8,1-2,1.2-3.1c0.1-1,0.6-2,1.4-2.8
	c1.9-1.9,4.9-1.9,6.7,0c1.9,1.9,1.9,4.9,0,6.7c-0.8,0.8-1.8,1.2-2.8,1.4c-1.1,0.1-2.3,0.4-3.1,1.2l-2.8,2.8c-0.8,0.8-1,2-1.2,3.1
	C20.6,28.8,20.2,29.8,19.4,30.6z" />
</svg>