<?xml version="1.0" standalone="no"?>
<!DOCTYPE svg PUBLIC "-//W3C//DTD SVG 20010904//EN"
 "http://www.w3.org/TR/2001/REC-SVG-20010904/DTD/svg10.dtd">
<svg version="1.0" xmlns="http://www.w3.org/2000/svg"
 width="700.000000pt" height="700.000000pt" viewBox="0 0 700.000000 700.000000"
 preserveAspectRatio="xMidYMid meet">
<metadata>
Created by potrace 1.14, written by Peter Selinger 2001-2017
</metadata>
<g transform="translate(0.000000,700.000000) scale(0.100000,-0.100000)"
fill="#000000" stroke="none">
<path d="M638 6990 c-167 -28 -333 -126 -444 -260 -25 -30 -65 -95 -89 -145
-82 -170 -75 110 -75 -3088 0 -2818 0 -2855 20 -2933 66 -261 250 -454 510
-536 l75 -23 2865 0 2865 0 75 23 c260 82 444 275 510 536 20 78 20 115 20
2936 0 2821 0 2858 -20 2936 -65 258 -244 448 -505 536 l-70 23 -2845 1
c-1565 1 -2866 -2 -2892 -6z m1977 -2231 c97 -13 256 -64 362 -117 253 -129
452 -341 568 -608 l33 -76 4 283 3 284 28 57 c35 72 97 134 167 167 78 37 192
37 270 0 61 -28 1579 -910 1622 -942 36 -27 85 -97 104 -149 10 -25 17 -76 17
-120 1 -66 -3 -84 -32 -142 -20 -41 -48 -80 -74 -101 -51 -42 -1569 -928
-1647 -961 -158 -67 -339 3 -420 160 l-35 69 -3 279 -3 279 -59 -119 c-100
-202 -243 -366 -420 -484 -145 -96 -282 -152 -447 -185 -108 -21 -327 -23
-433 -4 -378 67 -704 307 -877 647 -98 191 -138 361 -136 579 1 153 16 244 63
387 122 366 418 657 790 776 177 56 339 68 555 41z"/>
<path d="M2300 4313 c-119 -20 -268 -89 -367 -170 -114 -93 -220 -265 -259
-418 -25 -99 -23 -275 4 -377 58 -214 201 -394 392 -492 122 -64 217 -87 355
-87 131 0 230 22 337 77 142 71 254 176 334 314 25 44 54 85 64 90 27 14 792
13 823 -1 38 -17 47 -50 47 -164 0 -100 1 -106 28 -136 53 -59 48 -61 575 246
506 295 516 302 502 364 -3 16 -16 38 -28 49 -12 11 -231 142 -487 291 -508
296 -507 295 -561 242 l-29 -29 0 -162 0 -162 -29 -29 -29 -29 -381 0 -380 0
-24 23 c-13 12 -37 53 -53 92 -96 234 -304 407 -554 461 -60 13 -222 17 -280
7z"/>
</g>
</svg>
