<?xml version="1.0" standalone="no"?>
<!DOCTYPE svg PUBLIC "-//W3C//DTD SVG 20010904//EN"
 "http://www.w3.org/TR/2001/REC-SVG-20010904/DTD/svg10.dtd">
<svg version="1.0" xmlns="http://www.w3.org/2000/svg"
 width="700.000000pt" height="700.000000pt" viewBox="0 0 700.000000 700.000000"
 preserveAspectRatio="xMidYMid meet">
<metadata>
Created by potrace 1.14, written by Peter Selinger 2001-2017
</metadata>
<g transform="translate(0.000000,700.000000) scale(0.100000,-0.100000)"
fill="#000000" stroke="none">
<path d="M3345 6988 c-398 -68 -713 -334 -834 -704 -29 -89 -36 -120 -47 -212
-5 -44 -26 -164 -38 -222 -30 -138 -73 -248 -135 -344 -53 -81 -760 -783 -816
-811 -22 -10 -47 -24 -55 -31 -8 -6 -53 -25 -100 -41 -71 -26 -113 -37 -215
-59 -5 -1 -59 -9 -120 -19 -60 -9 -119 -18 -130 -20 -283 -53 -518 -209 -683
-454 -64 -96 -121 -230 -148 -347 -29 -123 -26 -353 6 -475 121 -470 548 -798
1026 -790 391 6 734 221 919 575 30 57 83 212 90 260 13 93 17 119 26 175 38
239 95 398 184 515 20 27 211 223 425 436 362 361 393 390 462 423 96 46 122
53 240 66 179 19 350 -11 471 -82 23 -14 71 -53 107 -87 188 -177 424 -212
636 -95 158 88 253 245 259 432 5 141 -37 265 -121 359 -138 154 -191 283
-208 499 -15 196 -17 206 -46 313 -71 258 -255 485 -511 630 -59 33 -237 96
-304 107 -65 10 -286 13 -340 3z"/>
<path d="M5882 4539 c-500 -45 -883 -403 -957 -894 -8 -58 -25 -165 -31 -200
-29 -168 -91 -327 -168 -428 -42 -56 -752 -767 -813 -815 -92 -72 -237 -114
-403 -114 -212 -1 -361 48 -471 154 -133 129 -243 178 -400 180 -110 0 -239
-42 -309 -101 -143 -123 -200 -236 -206 -406 -4 -149 39 -256 156 -390 111
-128 159 -258 175 -480 8 -120 15 -173 31 -243 90 -392 410 -700 811 -781 85
-18 311 -22 369 -8 12 3 37 8 55 11 40 6 152 44 224 76 117 51 280 180 371
295 131 165 193 325 229 595 8 53 13 88 19 115 34 163 78 284 137 376 57 90
709 743 806 809 98 66 248 121 393 146 14 2 36 7 50 9 29 6 82 14 125 19 119
15 227 47 334 98 46 22 90 46 98 54 8 8 18 14 23 14 13 0 128 96 183 153 66
69 130 160 176 253 276 559 9 1228 -575 1443 -44 16 -98 32 -118 35 -21 4 -42
9 -47 11 -4 3 -43 8 -86 11 -43 3 -82 7 -88 8 -5 1 -47 -1 -93 -5z"/>
</g>
</svg>
