<svg width="2560" height="1600" viewBox="0 0 2560 1600" fill="none" xmlns="http://www.w3.org/2000/svg">
<g opacity="0.05" clip-path="url(#clip0_2094_4153)">
<path d="M2564.01 0H0V1600H2564.01V0Z" fill="white"/>
<path d="M142.454 0H0V145.463H142.454V0Z" fill="#DBE1FA"/>
<path d="M142.454 0H0V72.7316H142.454V0Z" fill="#8499EF"/>
<path d="M284.907 0H142.453V145.463H284.907V0Z" fill="#7B91EE"/>
<path d="M284.907 0H142.453V72.7316H284.907V0Z" fill="#F9FAFE"/>
<path d="M427.337 0H284.884V145.463H427.337V0Z" fill="#9EAEF2"/>
<path d="M427.337 0H284.884V72.7316H427.337V0Z" fill="#DAE0FA"/>
<path d="M569.79 0H427.337V145.463H569.79V0Z" fill="#98A9F2"/>
<path d="M569.79 0H427.337V72.7316H569.79V0Z" fill="#E2E7FB"/>
<path d="M712.225 0H569.78V145.455H712.225V0Z" fill="white"/>
<path d="M641.018 0H569.791V72.7316H641.018V0Z" fill="#94A6F1"/>
<path d="M641.018 0H569.791V36.3658H641.018V0Z" fill="#B5C2F5"/>
<path d="M712.221 0H640.994V72.7316H712.221V0Z" fill="#899DF0"/>
<path d="M712.221 0H640.994V36.3658H712.221V0Z" fill="#CFD7F9"/>
<path d="M641.018 72.7314H569.791V145.463H641.018V72.7314Z" fill="#A5B5F3"/>
<path d="M641.018 72.7314H569.791V109.097H641.018V72.7314Z" fill="#3D5DE6"/>
<path d="M712.221 72.7314H640.994V145.463H712.221V72.7314Z" fill="#EFF1FD"/>
<path d="M712.221 72.7314H640.994V109.097H712.221V72.7314Z" fill="#EAEEFC"/>
<path d="M854.671 0H712.226V145.455H854.671V0Z" fill="white"/>
<path d="M783.447 0H712.221V72.7316H783.447V0Z" fill="#9EAEF2"/>
<path d="M783.447 0H712.221V36.3658H783.447V0Z" fill="#6881EB"/>
<path d="M854.674 0H783.447V72.7316H854.674V0Z" fill="#4C6AE8"/>
<path d="M854.674 0H783.447V36.3658H854.674V0Z" fill="#3053E4"/>
<path d="M783.447 72.7314H712.221V145.463H783.447V72.7314Z" fill="#1F45E2"/>
<path d="M783.447 72.7314H712.221V109.097H783.447V72.7314Z" fill="#768DED"/>
<path d="M854.674 72.7314H783.447V145.463H854.674V72.7314Z" fill="#8197EF"/>
<path d="M854.674 72.7314H783.447V109.097H854.674V72.7314Z" fill="#C8D1F8"/>
<path d="M997.128 0H854.675V145.463H997.128V0Z" fill="#859AEF"/>
<path d="M997.128 0H854.675V72.7316H997.128V0Z" fill="#D7DEFA"/>
<path d="M1139.56 0H997.104V145.463H1139.56V0Z" fill="#C9D2F8"/>
<path d="M1139.56 0H997.104V72.7316H1139.56V0Z" fill="#E9EDFC"/>
<path d="M1282.01 0H1139.56V145.463H1282.01V0Z" fill="#5975E9"/>
<path d="M1282.01 0H1139.56V72.7316H1282.01V0Z" fill="#98A9F2"/>
<path d="M1424.45 0H1282.01V145.455H1424.45V0Z" fill="white"/>
<path d="M1353.24 0H1282.01V72.7316H1353.24V0Z" fill="#526FE9"/>
<path d="M1353.24 0H1282.01V36.3658H1353.24V0Z" fill="#DCE2FA"/>
<path d="M1424.47 0H1353.24V72.7316H1424.47V0Z" fill="#869AEF"/>
<path d="M1424.47 0H1353.24V36.3658H1424.47V0Z" fill="#ECF0FD"/>
<path d="M1353.24 72.7314H1282.01V145.463H1353.24V72.7314Z" fill="#BDC8F6"/>
<path d="M1353.24 72.7314H1282.01V109.097H1353.24V72.7314Z" fill="#294DE3"/>
<path d="M1424.47 72.7314H1353.24V145.463H1424.47V72.7314Z" fill="#4E6CE8"/>
<path d="M1424.47 72.7314H1353.24V109.097H1424.47V72.7314Z" fill="#FBFCFF"/>
<path d="M1566.89 0H1424.44V145.463H1566.89V0Z" fill="#A2B1F3"/>
<path d="M1566.89 0H1424.44V72.7316H1566.89V0Z" fill="#738BED"/>
<path d="M1709.34 0H1566.9V145.455H1709.34V0Z" fill="white"/>
<path d="M1638.12 0H1566.9V72.7316H1638.12V0Z" fill="#264BE3"/>
<path d="M1638.12 0H1566.9V36.3658H1638.12V0Z" fill="#D2DAF9"/>
<path d="M1709.35 0H1638.12V72.7316H1709.35V0Z" fill="#DFE5FB"/>
<path d="M1709.35 0H1638.12V36.3658H1709.35V0Z" fill="#4B6AE8"/>
<path d="M1638.12 72.7314H1566.9V145.463H1638.12V72.7314Z" fill="#395BE5"/>
<path d="M1638.12 72.7314H1566.9V109.097H1638.12V72.7314Z" fill="#5E79EA"/>
<path d="M1709.35 72.7314H1638.12V145.463H1709.35V72.7314Z" fill="#516FE8"/>
<path d="M1709.35 72.7314H1638.12V109.097H1709.35V72.7314Z" fill="#E1E6FB"/>
<path d="M1851.8 0H1709.35V145.463H1851.8V0Z" fill="#2A4EE3"/>
<path d="M1851.8 0H1709.35V72.7316H1851.8V0Z" fill="#5F7AEA"/>
<path d="M1994.23 0H1851.78V145.463H1994.23V0Z" fill="#8C9FF0"/>
<path d="M1994.23 0H1851.78V72.7316H1994.23V0Z" fill="#4766E7"/>
<path d="M2136.68 0H1994.23V145.455H2136.68V0Z" fill="white"/>
<path d="M2065.46 0H1994.23V72.7316H2065.46V0Z" fill="#A9B7F4"/>
<path d="M2065.46 0H1994.23V36.3658H2065.46V0Z" fill="#647EEB"/>
<path d="M2136.69 0H2065.46V72.7316H2136.69V0Z" fill="#385AE5"/>
<path d="M2136.69 0H2065.46V36.3658H2136.69V0Z" fill="#1A41E1"/>
<path d="M2065.46 72.7314H1994.23V145.463H2065.46V72.7314Z" fill="#9DADF2"/>
<path d="M2065.46 72.7314H1994.23V109.097H2065.46V72.7314Z" fill="#8FA2F0"/>
<path d="M2136.69 72.7314H2065.46V145.463H2136.69V72.7314Z" fill="#3C5DE6"/>
<path d="M2136.69 72.7314H2065.46V109.097H2136.69V72.7314Z" fill="#A1B1F3"/>
<path d="M2279.14 0H2136.69V145.463H2279.14V0Z" fill="#4C6AE8"/>
<path d="M2279.14 0H2136.69V72.7316H2279.14V0Z" fill="#5A76EA"/>
<path d="M2421.57 0H2279.12V145.455H2421.57V0Z" fill="white"/>
<path d="M2350.34 0H2279.12V72.7316H2350.34V0Z" fill="#5C77EA"/>
<path d="M2350.34 0H2279.12V36.3658H2350.34V0Z" fill="#5B77EA"/>
<path d="M2421.57 0H2350.34V72.7316H2421.57V0Z" fill="#7088EC"/>
<path d="M2421.57 0H2350.34V36.3658H2421.57V0Z" fill="#294DE3"/>
<path d="M2350.34 72.7314H2279.12V145.463H2350.34V72.7314Z" fill="#758CED"/>
<path d="M2350.34 72.7314H2279.12V109.097H2350.34V72.7314Z" fill="#1D43E2"/>
<path d="M2421.57 72.7314H2350.34V145.463H2421.57V72.7314Z" fill="#96A7F1"/>
<path d="M2421.57 72.7314H2350.34V109.097H2421.57V72.7314Z" fill="#8EA1F0"/>
<path d="M2564.02 0H2421.57V145.463H2564.02V0Z" fill="#91A4F1"/>
<path d="M2564.02 0H2421.57V72.7316H2564.02V0Z" fill="#E6EAFC"/>
<path d="M142.454 145.463H0V290.927H142.454V145.463Z" fill="#3A5BE5"/>
<path d="M142.454 145.463H0V218.195H142.454V145.463Z" fill="#637DEB"/>
<path d="M284.907 145.463H142.453V290.927H284.907V145.463Z" fill="#9EAEF2"/>
<path d="M284.907 145.463H142.453V218.195H284.907V145.463Z" fill="white"/>
<path d="M427.335 145.455H284.89V290.909H427.335V145.455Z" fill="white"/>
<path d="M356.111 145.463H284.884V218.195H356.111V145.463Z" fill="#889CF0"/>
<path d="M356.111 145.463H284.884V181.829H356.111V145.463Z" fill="#1D43E2"/>
<path d="M427.337 145.463H356.11V218.195H427.337V145.463Z" fill="#264AE3"/>
<path d="M427.337 145.463H356.11V181.829H427.337V145.463Z" fill="#C3CDF7"/>
<path d="M356.111 218.171H284.884V290.903H356.111V218.171Z" fill="#B4C1F5"/>
<path d="M356.111 218.171H284.884V254.537H356.111V218.171Z" fill="#E0E5FB"/>
<path d="M427.337 218.171H356.11V290.903H427.337V218.171Z" fill="#8B9FF0"/>
<path d="M427.337 218.171H356.11V254.537H427.337V218.171Z" fill="#DCE2FA"/>
<path d="M569.79 145.463H427.337V290.927H569.79V145.463Z" fill="#FCFCFF"/>
<path d="M569.79 145.463H427.337V218.195H569.79V145.463Z" fill="#6B84EC"/>
<path d="M712.245 145.463H569.791V290.927H712.245V145.463Z" fill="#284CE3"/>
<path d="M712.245 145.463H569.791V218.195H712.245V145.463Z" fill="#607BEA"/>
<path d="M854.671 145.455H712.226V290.909H854.671V145.455Z" fill="white"/>
<path d="M783.447 145.463H712.221V218.195H783.447V145.463Z" fill="#395AE5"/>
<path d="M783.447 145.463H712.221V181.829H783.447V145.463Z" fill="#5370E9"/>
<path d="M854.674 145.463H783.447V218.195H854.674V145.463Z" fill="#1F45E2"/>
<path d="M854.674 145.463H783.447V181.829H854.674V145.463Z" fill="#A7B6F4"/>
<path d="M783.447 218.171H712.221V290.903H783.447V218.171Z" fill="#2A4EE3"/>
<path d="M783.447 218.171H712.221V254.537H783.447V218.171Z" fill="#D7DEFA"/>
<path d="M854.674 218.171H783.447V290.903H854.674V218.171Z" fill="#B7C3F6"/>
<path d="M854.674 218.171H783.447V254.537H854.674V218.171Z" fill="#526FE9"/>
<path d="M997.128 145.463H854.675V290.927H997.128V145.463Z" fill="#627DEB"/>
<path d="M997.128 145.463H854.675V218.195H997.128V145.463Z" fill="#95A7F1"/>
<path d="M1139.56 145.455H997.115V290.909H1139.56V145.455Z" fill="white"/>
<path d="M1068.33 145.463H997.104V218.195H1068.33V145.463Z" fill="#E7EBFC"/>
<path d="M1068.33 145.463H997.104V181.829H1068.33V145.463Z" fill="#C4CEF7"/>
<path d="M1139.56 145.463H1068.33V218.195H1139.56V145.463Z" fill="#BEC9F7"/>
<path d="M1139.56 145.463H1068.33V181.829H1139.56V145.463Z" fill="#F0F2FD"/>
<path d="M1068.33 218.171H997.104V290.903H1068.33V218.171Z" fill="#1C42E2"/>
<path d="M1068.33 218.171H997.104V254.537H1068.33V218.171Z" fill="#8398EF"/>
<path d="M1139.56 218.171H1068.33V290.903H1139.56V218.171Z" fill="#EEF1FD"/>
<path d="M1139.56 218.171H1068.33V254.537H1139.56V218.171Z" fill="#CED6F9"/>
<path d="M1282.01 145.455H1139.56V290.909H1282.01V145.455Z" fill="white"/>
<path d="M1210.79 145.463H1139.56V218.195H1210.79V145.463Z" fill="#6982EC"/>
<path d="M1210.79 145.463H1139.56V181.829H1210.79V145.463Z" fill="#4B69E8"/>
<path d="M1282.01 145.463H1210.79V218.195H1282.01V145.463Z" fill="#3053E4"/>
<path d="M1282.01 145.463H1210.79V181.829H1282.01V145.463Z" fill="#2B4FE4"/>
<path d="M1210.79 218.171H1139.56V290.903H1210.79V218.171Z" fill="#3355E4"/>
<path d="M1210.79 218.171H1139.56V254.537H1210.79V218.171Z" fill="#F0F3FD"/>
<path d="M1282.01 218.171H1210.79V290.903H1282.01V218.171Z" fill="#99AAF2"/>
<path d="M1282.01 218.171H1210.79V254.537H1282.01V218.171Z" fill="#3154E4"/>
<path d="M1424.47 145.463H1282.01V290.927H1424.47V145.463Z" fill="#5A76EA"/>
<path d="M1424.47 145.463H1282.01V218.195H1424.47V145.463Z" fill="#9CADF2"/>
<path d="M1566.9 145.455H1424.45V290.909H1566.9V145.455Z" fill="white"/>
<path d="M1495.67 145.463H1424.44V218.195H1495.67V145.463Z" fill="#F1F3FD"/>
<path d="M1495.67 145.463H1424.44V181.829H1495.67V145.463Z" fill="#3557E5"/>
<path d="M1566.9 145.463H1495.67V218.195H1566.9V145.463Z" fill="#788FED"/>
<path d="M1566.9 145.463H1495.67V181.829H1566.9V145.463Z" fill="#96A8F1"/>
<path d="M1495.67 218.171H1424.44V290.903H1495.67V218.171Z" fill="#637EEB"/>
<path d="M1495.67 218.171H1424.44V254.537H1495.67V218.171Z" fill="#D5DCFA"/>
<path d="M1566.9 218.171H1495.67V290.903H1566.9V218.171Z" fill="#F3F5FD"/>
<path d="M1566.9 218.171H1495.67V254.537H1566.9V218.171Z" fill="#B3C0F5"/>
<path d="M1709.35 145.463H1566.9V290.927H1709.35V145.463Z" fill="#AEBBF4"/>
<path d="M1709.35 145.463H1566.9V218.195H1709.35V145.463Z" fill="#DCE2FA"/>
<path d="M1851.8 145.463H1709.35V290.927H1851.8V145.463Z" fill="#B6C2F6"/>
<path d="M1851.8 145.463H1709.35V218.195H1851.8V145.463Z" fill="#4D6BE8"/>
<path d="M1994.23 145.463H1851.78V290.927H1994.23V145.463Z" fill="#637EEB"/>
<path d="M1994.23 145.463H1851.78V218.195H1994.23V145.463Z" fill="#DEE3FB"/>
<path d="M2136.68 145.455H1994.23V290.909H2136.68V145.455Z" fill="white"/>
<path d="M2065.46 145.463H1994.23V218.195H2065.46V145.463Z" fill="#F3F5FD"/>
<path d="M2065.46 145.463H1994.23V181.829H2065.46V145.463Z" fill="#8096EF"/>
<path d="M2136.69 145.463H2065.46V218.195H2136.69V145.463Z" fill="#ABB9F4"/>
<path d="M2136.69 145.463H2065.46V181.829H2136.69V145.463Z" fill="#E3E8FB"/>
<path d="M2065.46 218.171H1994.23V290.903H2065.46V218.171Z" fill="#6F88EC"/>
<path d="M2065.46 218.171H1994.23V254.537H2065.46V218.171Z" fill="#1F45E2"/>
<path d="M2136.69 218.171H2065.46V290.903H2136.69V218.171Z" fill="#1940E1"/>
<path d="M2136.69 218.171H2065.46V254.537H2136.69V218.171Z" fill="#2549E3"/>
<path d="M2279.14 145.463H2136.69V290.927H2279.14V145.463Z" fill="#F8F9FE"/>
<path d="M2279.14 145.463H2136.69V218.195H2279.14V145.463Z" fill="#728AED"/>
<path d="M2421.57 145.463H2279.12V290.927H2421.57V145.463Z" fill="#DAE0FA"/>
<path d="M2421.57 145.463H2279.12V218.195H2421.57V145.463Z" fill="#4D6BE8"/>
<path d="M2564.02 145.463H2421.57V290.927H2564.02V145.463Z" fill="#BBC7F6"/>
<path d="M2564.02 145.463H2421.57V218.195H2564.02V145.463Z" fill="#AEBCF4"/>
<path d="M142.454 290.902H0V436.366H142.454V290.902Z" fill="#B8C4F6"/>
<path d="M142.454 290.902H0V363.634H142.454V290.902Z" fill="#859AEF"/>
<path d="M284.907 290.902H142.453V436.366H284.907V290.902Z" fill="#3D5EE6"/>
<path d="M284.907 290.902H142.453V363.634H284.907V290.902Z" fill="#8398EF"/>
<path d="M427.337 290.902H284.884V436.366H427.337V290.902Z" fill="#F3F5FD"/>
<path d="M427.337 290.902H284.884V363.634H427.337V290.902Z" fill="#738BED"/>
<path d="M569.78 290.909H427.335V436.364H569.78V290.909Z" fill="white"/>
<path d="M498.564 290.902H427.337V363.634H498.564V290.902Z" fill="#6881EB"/>
<path d="M498.564 290.902H427.337V327.268H498.564V290.902Z" fill="#EDF0FD"/>
<path d="M569.791 290.902H498.564V363.634H569.791V290.902Z" fill="#7E94EE"/>
<path d="M569.791 290.902H498.564V327.268H569.791V290.902Z" fill="#B8C4F6"/>
<path d="M498.564 363.634H427.337V436.366H498.564V363.634Z" fill="#4F6CE8"/>
<path d="M498.564 363.634H427.337V400H498.564V363.634Z" fill="#97A9F2"/>
<path d="M569.791 363.634H498.564V436.366H569.791V363.634Z" fill="#AFBDF5"/>
<path d="M569.791 363.634H498.564V400H569.791V363.634Z" fill="#7990EE"/>
<path d="M712.245 290.902H569.791V436.366H712.245V290.902Z" fill="#B3C0F5"/>
<path d="M712.245 290.902H569.791V363.634H712.245V290.902Z" fill="#9EAEF2"/>
<path d="M854.671 290.909H712.226V436.364H854.671V290.909Z" fill="white"/>
<path d="M783.447 290.902H712.221V363.634H783.447V290.902Z" fill="#395BE5"/>
<path d="M783.447 290.902H712.221V327.268H783.447V290.902Z" fill="#A2B2F3"/>
<path d="M854.674 290.902H783.447V363.634H854.674V290.902Z" fill="#C0CAF7"/>
<path d="M854.674 290.902H783.447V327.268H854.674V290.902Z" fill="#6881EB"/>
<path d="M783.447 363.634H712.221V436.366H783.447V363.634Z" fill="#5874E9"/>
<path d="M783.447 363.634H712.221V400H783.447V363.634Z" fill="#395BE5"/>
<path d="M854.674 363.634H783.447V436.366H854.674V363.634Z" fill="#6882EB"/>
<path d="M854.674 363.634H783.447V400H854.674V363.634Z" fill="#8A9DF0"/>
<path d="M997.128 290.902H854.675V436.366H997.128V290.902Z" fill="#CED7F9"/>
<path d="M997.128 290.902H854.675V363.634H997.128V290.902Z" fill="#B3C0F5"/>
<path d="M1139.56 290.902H997.104V436.366H1139.56V290.902Z" fill="#BBC6F6"/>
<path d="M1139.56 290.902H997.104V363.634H1139.56V290.902Z" fill="#DCE2FB"/>
<path d="M1282.01 290.902H1139.56V436.366H1282.01V290.902Z" fill="#6F87EC"/>
<path d="M1282.01 290.902H1139.56V363.634H1282.01V290.902Z" fill="#6C85EC"/>
<path d="M1424.47 290.902H1282.01V436.366H1424.47V290.902Z" fill="#2247E2"/>
<path d="M1424.47 290.902H1282.01V363.634H1424.47V290.902Z" fill="#6983EC"/>
<path d="M1566.89 290.902H1424.44V436.366H1566.89V290.902Z" fill="#2B4FE3"/>
<path d="M1566.89 290.902H1424.44V363.634H1566.89V290.902Z" fill="#3557E5"/>
<path d="M1709.35 290.902H1566.9V436.366H1709.35V290.902Z" fill="#DAE1FA"/>
<path d="M1709.35 290.902H1566.9V363.634H1709.35V290.902Z" fill="#EBEFFC"/>
<path d="M1851.8 290.902H1709.35V436.366H1851.8V290.902Z" fill="#3759E5"/>
<path d="M1851.8 290.902H1709.35V363.634H1851.8V290.902Z" fill="#E2E7FB"/>
<path d="M1994.23 290.902H1851.78V436.366H1994.23V290.902Z" fill="#4463E7"/>
<path d="M1994.23 290.902H1851.78V363.634H1994.23V290.902Z" fill="#ABB9F4"/>
<path d="M2136.69 290.902H1994.23V436.366H2136.69V290.902Z" fill="#4060E6"/>
<path d="M2136.69 290.902H1994.23V363.634H2136.69V290.902Z" fill="#2A4EE3"/>
<path d="M2279.12 290.909H2136.68V436.364H2279.12V290.909Z" fill="white"/>
<path d="M2207.91 290.902H2136.69V363.634H2207.91V290.902Z" fill="#6882EB"/>
<path d="M2207.91 290.902H2136.69V327.268H2207.91V290.902Z" fill="#4968E7"/>
<path d="M2279.12 290.902H2207.89V363.634H2279.12V290.902Z" fill="#5E79EA"/>
<path d="M2279.12 290.902H2207.89V327.268H2279.12V290.902Z" fill="#1B41E1"/>
<path d="M2207.91 363.634H2136.69V436.366H2207.91V363.634Z" fill="#94A6F1"/>
<path d="M2207.91 363.634H2136.69V400H2207.91V363.634Z" fill="#F2F4FD"/>
<path d="M2279.12 363.634H2207.89V436.366H2279.12V363.634Z" fill="#274CE3"/>
<path d="M2279.12 363.634H2207.89V400H2279.12V363.634Z" fill="#B2BFF5"/>
<path d="M2421.57 290.902H2279.12V436.366H2421.57V290.902Z" fill="#5572E9"/>
<path d="M2421.57 290.902H2279.12V363.634H2421.57V290.902Z" fill="#ACBAF4"/>
<path d="M2564.01 290.909H2421.57V436.364H2564.01V290.909Z" fill="white"/>
<path d="M2492.8 290.902H2421.57V363.634H2492.8V290.902Z" fill="#E5E9FC"/>
<path d="M2492.8 290.902H2421.57V327.268H2492.8V290.902Z" fill="#B4C1F5"/>
<path d="M2564.02 290.902H2492.8V363.634H2564.02V290.902Z" fill="#CED6F9"/>
<path d="M2564.02 290.902H2492.8V327.268H2564.02V290.902Z" fill="#C4CEF7"/>
<path d="M2492.8 363.634H2421.57V436.366H2492.8V363.634Z" fill="#B1BEF5"/>
<path d="M2492.8 363.634H2421.57V400H2492.8V363.634Z" fill="#5874E9"/>
<path d="M2564.02 363.634H2492.8V436.366H2564.02V363.634Z" fill="#7D93EE"/>
<path d="M2564.02 363.634H2492.8V400H2564.02V363.634Z" fill="#1C43E2"/>
<path d="M142.454 436.366H0V581.829H142.454V436.366Z" fill="#3053E4"/>
<path d="M142.454 436.366H0V509.097H142.454V436.366Z" fill="#2B4FE4"/>
<path d="M284.907 436.366H142.453V581.829H284.907V436.366Z" fill="#8CA0F0"/>
<path d="M284.907 436.366H142.453V509.097H284.907V436.366Z" fill="#607AEA"/>
<path d="M427.335 436.364H284.89V581.818H427.335V436.364Z" fill="white"/>
<path d="M356.111 436.366H284.884V509.097H356.111V436.366Z" fill="#FCFDFF"/>
<path d="M356.111 436.366H284.884V472.732H356.111V436.366Z" fill="#D0D8F9"/>
<path d="M427.337 436.366H356.11V509.097H427.337V436.366Z" fill="#9AABF2"/>
<path d="M427.337 436.366H356.11V472.732H427.337V436.366Z" fill="#2E52E4"/>
<path d="M356.111 509.098H284.884V581.829H356.111V509.098Z" fill="#6F88EC"/>
<path d="M356.111 509.098H284.884V545.464H356.111V509.098Z" fill="#AFBCF5"/>
<path d="M427.337 509.098H356.11V581.829H427.337V509.098Z" fill="#B5C1F5"/>
<path d="M427.337 509.098H356.11V545.464H427.337V509.098Z" fill="#C6D0F8"/>
<path d="M569.78 436.364H427.335V581.818H569.78V436.364Z" fill="white"/>
<path d="M498.564 436.366H427.337V509.097H498.564V436.366Z" fill="#AEBCF4"/>
<path d="M498.564 436.366H427.337V472.732H498.564V436.366Z" fill="#879BEF"/>
<path d="M569.791 436.366H498.564V509.097H569.791V436.366Z" fill="#E4E9FC"/>
<path d="M569.791 436.366H498.564V472.732H569.791V436.366Z" fill="#5C78EA"/>
<path d="M498.564 509.098H427.337V581.829H498.564V509.098Z" fill="#DDE3FB"/>
<path d="M498.564 509.098H427.337V545.464H498.564V509.098Z" fill="#BBC7F6"/>
<path d="M569.791 509.098H498.564V581.829H569.791V509.098Z" fill="#A4B3F3"/>
<path d="M569.791 509.098H498.564V545.464H569.791V509.098Z" fill="#F5F7FE"/>
<path d="M712.225 436.364H569.78V581.818H712.225V436.364Z" fill="white"/>
<path d="M641.018 436.366H569.791V509.097H641.018V436.366Z" fill="#E4E8FB"/>
<path d="M641.018 436.366H569.791V472.732H641.018V436.366Z" fill="#B2BFF5"/>
<path d="M712.221 436.366H640.994V509.097H712.221V436.366Z" fill="#778EED"/>
<path d="M712.221 436.366H640.994V472.732H712.221V436.366Z" fill="#E1E6FB"/>
<path d="M641.018 509.098H569.791V581.829H641.018V509.098Z" fill="#A3B2F3"/>
<path d="M641.018 509.098H569.791V545.464H641.018V509.098Z" fill="#EEF1FD"/>
<path d="M712.221 509.098H640.994V581.829H712.221V509.098Z" fill="#95A7F1"/>
<path d="M712.221 509.098H640.994V545.464H712.221V509.098Z" fill="#6881EB"/>
<path d="M854.674 436.366H712.221V581.829H854.674V436.366Z" fill="#F1F3FD"/>
<path d="M854.674 436.366H712.221V509.097H854.674V436.366Z" fill="#5875E9"/>
<path d="M997.128 436.366H854.675V581.829H997.128V436.366Z" fill="#2247E2"/>
<path d="M997.128 436.366H854.675V509.097H997.128V436.366Z" fill="#D6DDFA"/>
<path d="M1139.56 436.366H997.104V581.829H1139.56V436.366Z" fill="#3658E5"/>
<path d="M1139.56 436.366H997.104V509.097H1139.56V436.366Z" fill="#AEBBF4"/>
<path d="M1282.01 436.366H1139.56V581.829H1282.01V436.366Z" fill="#2045E2"/>
<path d="M1282.01 436.366H1139.56V509.097H1282.01V436.366Z" fill="#8EA1F0"/>
<path d="M1424.45 436.364H1282.01V581.818H1424.45V436.364Z" fill="white"/>
<path d="M1353.24 436.366H1282.01V509.097H1353.24V436.366Z" fill="#2C50E4"/>
<path d="M1353.24 436.366H1282.01V472.732H1353.24V436.366Z" fill="#F7F9FE"/>
<path d="M1424.47 436.366H1353.24V509.097H1424.47V436.366Z" fill="#274CE3"/>
<path d="M1424.47 436.366H1353.24V472.732H1424.47V436.366Z" fill="#8DA0F0"/>
<path d="M1353.24 509.098H1282.01V581.829H1353.24V509.098Z" fill="#BEC9F7"/>
<path d="M1353.24 509.098H1282.01V545.464H1353.24V509.098Z" fill="#BAC6F6"/>
<path d="M1424.47 509.098H1353.24V581.829H1424.47V509.098Z" fill="#6881EB"/>
<path d="M1424.47 509.098H1353.24V545.464H1424.47V509.098Z" fill="#CDD6F9"/>
<path d="M1566.89 436.366H1424.44V581.829H1566.89V436.366Z" fill="#B3C0F5"/>
<path d="M1566.89 436.366H1424.44V509.097H1566.89V436.366Z" fill="#2449E3"/>
<path d="M1709.35 436.366H1566.9V581.829H1709.35V436.366Z" fill="#4F6DE8"/>
<path d="M1709.35 436.366H1566.9V509.097H1709.35V436.366Z" fill="#D7DEFA"/>
<path d="M1851.8 436.366H1709.35V581.829H1851.8V436.366Z" fill="#D1D8F9"/>
<path d="M1851.8 436.366H1709.35V509.097H1851.8V436.366Z" fill="#FBFCFE"/>
<path d="M1994.23 436.366H1851.78V581.829H1994.23V436.366Z" fill="#A3B3F3"/>
<path d="M1994.23 436.366H1851.78V509.097H1994.23V436.366Z" fill="#5F7AEA"/>
<path d="M2136.69 436.366H1994.23V581.829H2136.69V436.366Z" fill="#2247E2"/>
<path d="M2136.69 436.366H1994.23V509.097H2136.69V436.366Z" fill="#5773E9"/>
<path d="M2279.14 436.366H2136.69V581.829H2279.14V436.366Z" fill="#4968E7"/>
<path d="M2279.14 436.366H2136.69V509.097H2279.14V436.366Z" fill="#8499EF"/>
<path d="M2421.57 436.366H2279.12V581.829H2421.57V436.366Z" fill="#A6B5F3"/>
<path d="M2421.57 436.366H2279.12V509.097H2421.57V436.366Z" fill="#D5DCFA"/>
<path d="M2564.02 436.366H2421.57V581.829H2564.02V436.366Z" fill="#B2BFF5"/>
<path d="M2564.02 436.366H2421.57V509.097H2564.02V436.366Z" fill="#395AE5"/>
<path d="M142.445 581.818H0V727.273H142.445V581.818Z" fill="white"/>
<path d="M71.2268 581.829H0V654.561H71.2268V581.829Z" fill="#AEBBF4"/>
<path d="M71.2268 581.829H0V618.195H71.2268V581.829Z" fill="#3658E5"/>
<path d="M142.453 581.829H71.2266V654.561H142.453V581.829Z" fill="#2C50E4"/>
<path d="M142.453 581.829H71.2266V618.195H142.453V581.829Z" fill="#3053E4"/>
<path d="M71.2268 654.537H0V727.268H71.2268V654.537Z" fill="#F3F5FD"/>
<path d="M71.2268 654.537H0V690.902H71.2268V654.537Z" fill="#B6C2F5"/>
<path d="M142.453 654.537H71.2266V727.268H142.453V654.537Z" fill="#B8C4F6"/>
<path d="M142.453 654.537H71.2266V690.902H142.453V654.537Z" fill="#1A40E1"/>
<path d="M284.907 581.829H142.453V727.292H284.907V581.829Z" fill="#516EE8"/>
<path d="M284.907 581.829H142.453V654.561H284.907V581.829Z" fill="#A3B2F3"/>
<path d="M427.337 581.829H284.884V727.292H427.337V581.829Z" fill="#3457E5"/>
<path d="M427.337 581.829H284.884V654.561H427.337V581.829Z" fill="#D7DDFA"/>
<path d="M569.79 581.829H427.337V727.292H569.79V581.829Z" fill="#9AABF2"/>
<path d="M569.79 581.829H427.337V654.561H569.79V581.829Z" fill="#3658E5"/>
<path d="M712.225 581.818H569.78V727.273H712.225V581.818Z" fill="white"/>
<path d="M641.018 581.829H569.791V654.561H641.018V581.829Z" fill="#6881EB"/>
<path d="M641.018 581.829H569.791V618.195H641.018V581.829Z" fill="#3557E5"/>
<path d="M712.221 581.829H640.994V654.561H712.221V581.829Z" fill="#99ABF2"/>
<path d="M712.221 581.829H640.994V618.195H712.221V581.829Z" fill="#8DA0F0"/>
<path d="M641.018 654.537H569.791V727.268H641.018V654.537Z" fill="#4464E7"/>
<path d="M641.018 654.537H569.791V690.902H641.018V654.537Z" fill="#2449E2"/>
<path d="M712.221 654.537H640.994V727.268H712.221V654.537Z" fill="#5C77EA"/>
<path d="M712.221 654.537H640.994V690.902H712.221V654.537Z" fill="#8EA1F0"/>
<path d="M854.674 581.829H712.221V727.292H854.674V581.829Z" fill="#183FE1"/>
<path d="M854.674 581.829H712.221V654.561H854.674V581.829Z" fill="#C1CCF7"/>
<path d="M997.128 581.829H854.675V727.292H997.128V581.829Z" fill="#6B84EC"/>
<path d="M997.128 581.829H854.675V654.561H997.128V581.829Z" fill="#A9B7F4"/>
<path d="M1139.56 581.829H997.104V727.292H1139.56V581.829Z" fill="#A5B4F3"/>
<path d="M1139.56 581.829H997.104V654.561H1139.56V581.829Z" fill="#F1F3FD"/>
<path d="M1282.01 581.829H1139.56V727.292H1282.01V581.829Z" fill="#607BEA"/>
<path d="M1282.01 581.829H1139.56V654.561H1282.01V581.829Z" fill="#AEBCF5"/>
<path d="M1424.47 581.829H1282.01V727.292H1424.47V581.829Z" fill="#D6DDFA"/>
<path d="M1424.47 581.829H1282.01V654.561H1424.47V581.829Z" fill="#90A3F1"/>
<path d="M1566.89 581.829H1424.44V727.292H1566.89V581.829Z" fill="#2C50E4"/>
<path d="M1566.89 581.829H1424.44V654.561H1566.89V581.829Z" fill="#F7F8FE"/>
<path d="M1709.35 581.829H1566.9V727.292H1709.35V581.829Z" fill="#C7D1F8"/>
<path d="M1709.35 581.829H1566.9V654.561H1709.35V581.829Z" fill="#AAB8F4"/>
<path d="M1851.79 581.818H1709.34V727.273H1851.79V581.818Z" fill="white"/>
<path d="M1780.58 581.829H1709.35V654.561H1780.58V581.829Z" fill="#6C85EC"/>
<path d="M1780.58 581.829H1709.35V618.195H1780.58V581.829Z" fill="#B9C5F6"/>
<path d="M1851.78 581.829H1780.55V654.561H1851.78V581.829Z" fill="#1C43E2"/>
<path d="M1851.78 581.829H1780.55V618.195H1851.78V581.829Z" fill="#BEC9F7"/>
<path d="M1780.58 654.537H1709.35V727.268H1780.58V654.537Z" fill="#8DA1F0"/>
<path d="M1780.58 654.537H1709.35V690.902H1780.58V654.537Z" fill="#DBE1FA"/>
<path d="M1851.78 654.537H1780.55V727.268H1851.78V654.537Z" fill="#93A5F1"/>
<path d="M1851.78 654.537H1780.55V690.902H1851.78V654.537Z" fill="#4C6AE8"/>
<path d="M1994.23 581.829H1851.78V727.292H1994.23V581.829Z" fill="#B8C4F6"/>
<path d="M1994.23 581.829H1851.78V654.561H1994.23V581.829Z" fill="#6982EB"/>
<path d="M2136.69 581.829H1994.23V727.292H2136.69V581.829Z" fill="#8298EF"/>
<path d="M2136.69 581.829H1994.23V654.561H2136.69V581.829Z" fill="#526FE9"/>
<path d="M2279.12 581.818H2136.68V727.273H2279.12V581.818Z" fill="white"/>
<path d="M2207.91 581.829H2136.69V654.561H2207.91V581.829Z" fill="#788FED"/>
<path d="M2207.91 581.829H2136.69V618.195H2207.91V581.829Z" fill="#617CEB"/>
<path d="M2279.12 581.829H2207.89V654.561H2279.12V581.829Z" fill="#8599EF"/>
<path d="M2279.12 581.829H2207.89V618.195H2279.12V581.829Z" fill="#C3CDF7"/>
<path d="M2207.91 654.537H2136.69V727.268H2207.91V654.537Z" fill="#EFF2FD"/>
<path d="M2207.91 654.537H2136.69V690.902H2207.91V654.537Z" fill="#8DA1F0"/>
<path d="M2279.12 654.537H2207.89V727.268H2279.12V654.537Z" fill="#4B69E8"/>
<path d="M2279.12 654.537H2207.89V690.902H2279.12V654.537Z" fill="#7E94EE"/>
<path d="M2421.57 581.829H2279.12V727.292H2421.57V581.829Z" fill="#B6C2F6"/>
<path d="M2421.57 581.829H2279.12V654.561H2421.57V581.829Z" fill="#A4B4F3"/>
<path d="M2564.02 581.829H2421.57V727.292H2564.02V581.829Z" fill="#8FA2F0"/>
<path d="M2564.02 581.829H2421.57V654.561H2564.02V581.829Z" fill="#DAE0FA"/>
<path d="M142.454 727.269H0V872.732H142.454V727.269Z" fill="#2146E2"/>
<path d="M142.454 727.269H0V800H142.454V727.269Z" fill="#3C5DE6"/>
<path d="M284.907 727.269H142.453V872.732H284.907V727.269Z" fill="#3053E4"/>
<path d="M284.907 727.269H142.453V800H284.907V727.269Z" fill="#6C85EC"/>
<path d="M427.337 727.269H284.884V872.732H427.337V727.269Z" fill="#889CF0"/>
<path d="M427.337 727.269H284.884V800H427.337V727.269Z" fill="#6C85EC"/>
<path d="M569.78 727.273H427.335V872.727H569.78V727.273Z" fill="white"/>
<path d="M498.564 727.269H427.337V800H498.564V727.269Z" fill="#9AABF2"/>
<path d="M498.564 727.269H427.337V763.634H498.564V727.269Z" fill="#4666E7"/>
<path d="M569.791 727.269H498.564V800H569.791V727.269Z" fill="#6D86EC"/>
<path d="M569.791 727.269H498.564V763.634H569.791V727.269Z" fill="#657FEB"/>
<path d="M498.564 800H427.337V872.732H498.564V800Z" fill="#9FAFF2"/>
<path d="M498.564 800H427.337V836.366H498.564V800Z" fill="#5370E9"/>
<path d="M569.791 800H498.564V872.732H569.791V800Z" fill="#ABB9F4"/>
<path d="M569.791 800H498.564V836.366H569.791V800Z" fill="#254AE3"/>
<path d="M712.245 727.269H569.791V872.732H712.245V727.269Z" fill="#2A4EE3"/>
<path d="M712.245 727.269H569.791V800H712.245V727.269Z" fill="#3758E5"/>
<path d="M854.674 727.269H712.221V872.732H854.674V727.269Z" fill="#B8C4F6"/>
<path d="M854.674 727.269H712.221V800H854.674V727.269Z" fill="#E0E5FB"/>
<path d="M997.115 727.273H854.67V872.727H997.115V727.273Z" fill="white"/>
<path d="M925.902 727.269H854.675V800H925.902V727.269Z" fill="#A2B1F3"/>
<path d="M925.902 727.269H854.675V763.634H925.902V727.269Z" fill="#8095EE"/>
<path d="M997.128 727.269H925.901V800H997.128V727.269Z" fill="#4A68E7"/>
<path d="M997.128 727.269H925.901V763.634H997.128V727.269Z" fill="#EBEFFC"/>
<path d="M925.902 800H854.675V872.732H925.902V800Z" fill="#A2B2F3"/>
<path d="M925.902 800H854.675V836.366H925.902V800Z" fill="#2B4FE4"/>
<path d="M997.128 800H925.901V872.732H997.128V800Z" fill="#879CEF"/>
<path d="M997.128 800H925.901V836.366H997.128V800Z" fill="#1D43E2"/>
<path d="M1139.56 727.273H997.115V872.727H1139.56V727.273Z" fill="white"/>
<path d="M1068.33 727.269H997.104V800H1068.33V727.269Z" fill="#506EE8"/>
<path d="M1068.33 727.269H997.104V763.634H1068.33V727.269Z" fill="#A2B2F3"/>
<path d="M1139.56 727.269H1068.33V800H1139.56V727.269Z" fill="#7F95EE"/>
<path d="M1139.56 727.269H1068.33V763.634H1139.56V727.269Z" fill="#6A83EC"/>
<path d="M1068.33 800H997.104V872.732H1068.33V800Z" fill="#B2BFF5"/>
<path d="M1068.33 800H997.104V836.366H1068.33V800Z" fill="#9DADF2"/>
<path d="M1139.56 800H1068.33V872.732H1139.56V800Z" fill="#E0E5FB"/>
<path d="M1139.56 800H1068.33V836.366H1139.56V800Z" fill="#4766E7"/>
<path d="M1282.01 727.269H1139.56V872.732H1282.01V727.269Z" fill="#506EE8"/>
<path d="M1282.01 727.269H1139.56V800H1282.01V727.269Z" fill="#9EAEF2"/>
<path d="M1424.45 727.273H1282.01V872.727H1424.45V727.273Z" fill="white"/>
<path d="M1353.24 727.269H1282.01V800H1353.24V727.269Z" fill="#6E86EC"/>
<path d="M1353.24 727.269H1282.01V763.634H1353.24V727.269Z" fill="#899DF0"/>
<path d="M1424.47 727.269H1353.24V800H1424.47V727.269Z" fill="#E3E8FB"/>
<path d="M1424.47 727.269H1353.24V763.634H1424.47V727.269Z" fill="#8A9EF0"/>
<path d="M1353.24 800H1282.01V872.732H1353.24V800Z" fill="#B0BEF5"/>
<path d="M1353.24 800H1282.01V836.366H1353.24V800Z" fill="#3E5EE6"/>
<path d="M1424.47 800H1353.24V872.732H1424.47V800Z" fill="#6B84EC"/>
<path d="M1424.47 800H1353.24V836.366H1424.47V800Z" fill="#2B4FE3"/>
<path d="M1566.89 727.269H1424.44V872.732H1566.89V727.269Z" fill="#3E5EE6"/>
<path d="M1566.89 727.269H1424.44V800H1566.89V727.269Z" fill="#AFBDF5"/>
<path d="M1709.35 727.269H1566.9V872.732H1709.35V727.269Z" fill="#B3C0F5"/>
<path d="M1709.35 727.269H1566.9V800H1709.35V727.269Z" fill="#CDD6F9"/>
<path d="M1851.8 727.269H1709.35V872.732H1851.8V727.269Z" fill="#3C5DE6"/>
<path d="M1851.8 727.269H1709.35V800H1851.8V727.269Z" fill="#2449E3"/>
<path d="M1994.23 727.273H1851.79V872.727H1994.23V727.273Z" fill="white"/>
<path d="M1923.01 727.269H1851.78V800H1923.01V727.269Z" fill="#8CA0F0"/>
<path d="M1923.01 727.269H1851.78V763.634H1923.01V727.269Z" fill="#94A6F1"/>
<path d="M1994.23 727.269H1923.01V800H1994.23V727.269Z" fill="#3E5FE6"/>
<path d="M1994.23 727.269H1923.01V763.634H1994.23V727.269Z" fill="#637DEB"/>
<path d="M1923.01 800H1851.78V872.732H1923.01V800Z" fill="#B8C4F6"/>
<path d="M1923.01 800H1851.78V836.366H1923.01V800Z" fill="#A6B5F3"/>
<path d="M1994.23 800H1923.01V872.732H1994.23V800Z" fill="#8095EE"/>
<path d="M1994.23 800H1923.01V836.366H1994.23V800Z" fill="#90A2F1"/>
<path d="M2136.68 727.273H1994.23V872.727H2136.68V727.273Z" fill="white"/>
<path d="M2065.46 727.269H1994.23V800H2065.46V727.269Z" fill="#264BE3"/>
<path d="M2065.46 727.269H1994.23V763.634H2065.46V727.269Z" fill="#778EED"/>
<path d="M2136.69 727.269H2065.46V800H2136.69V727.269Z" fill="#8297EF"/>
<path d="M2136.69 727.269H2065.46V763.634H2136.69V727.269Z" fill="#9BACF2"/>
<path d="M2065.46 800H1994.23V872.732H2065.46V800Z" fill="#1C42E2"/>
<path d="M2065.46 800H1994.23V836.366H2065.46V800Z" fill="#9BACF2"/>
<path d="M2136.69 800H2065.46V872.732H2136.69V800Z" fill="#C3CDF7"/>
<path d="M2136.69 800H2065.46V836.366H2136.69V800Z" fill="#5773E9"/>
<path d="M2279.12 727.273H2136.68V872.727H2279.12V727.273Z" fill="white"/>
<path d="M2207.91 727.269H2136.69V800H2207.91V727.269Z" fill="#A4B4F3"/>
<path d="M2207.91 727.269H2136.69V763.634H2207.91V727.269Z" fill="#A9B7F4"/>
<path d="M2279.12 727.269H2207.89V800H2279.12V727.269Z" fill="#899DF0"/>
<path d="M2279.12 727.269H2207.89V763.634H2279.12V727.269Z" fill="#516FE8"/>
<path d="M2207.91 800H2136.69V872.732H2207.91V800Z" fill="#A2B2F3"/>
<path d="M2207.91 800H2136.69V836.366H2207.91V800Z" fill="#D2D9F9"/>
<path d="M2279.12 800H2207.89V872.732H2279.12V800Z" fill="#1D43E2"/>
<path d="M2279.12 800H2207.89V836.366H2279.12V800Z" fill="#F1F3FD"/>
<path d="M2421.57 727.269H2279.12V872.732H2421.57V727.269Z" fill="#395AE5"/>
<path d="M2421.57 727.269H2279.12V800H2421.57V727.269Z" fill="#E7EBFC"/>
<path d="M2564.02 727.269H2421.57V872.732H2564.02V727.269Z" fill="#98A9F2"/>
<path d="M2564.02 727.269H2421.57V800H2564.02V727.269Z" fill="#D7DEFA"/>
<path d="M142.454 872.731H0V1018.19H142.454V872.731Z" fill="#2D50E4"/>
<path d="M142.454 872.731H0V945.463H142.454V872.731Z" fill="#183FE1"/>
<path d="M284.89 872.728H142.445V1018.18H284.89V872.728Z" fill="white"/>
<path d="M213.68 872.731H142.453V945.463H213.68V872.731Z" fill="#98A9F2"/>
<path d="M213.68 872.731H142.453V909.097H213.68V872.731Z" fill="#B9C4F6"/>
<path d="M284.884 872.731H213.657V945.463H284.884V872.731Z" fill="#EDF0FD"/>
<path d="M284.884 872.731H213.657V909.097H284.884V872.731Z" fill="#D6DDFA"/>
<path d="M213.68 945.463H142.453V1018.19H213.68V945.463Z" fill="#5975E9"/>
<path d="M213.68 945.463H142.453V981.829H213.68V945.463Z" fill="#C3CDF7"/>
<path d="M284.884 945.463H213.657V1018.19H284.884V945.463Z" fill="#4564E7"/>
<path d="M284.884 945.463H213.657V981.829H284.884V945.463Z" fill="#8CA0F0"/>
<path d="M427.337 872.731H284.884V1018.19H427.337V872.731Z" fill="#254AE3"/>
<path d="M427.337 872.731H284.884V945.463H427.337V872.731Z" fill="#7E94EE"/>
<path d="M569.79 872.731H427.337V1018.19H569.79V872.731Z" fill="#4E6CE8"/>
<path d="M569.79 872.731H427.337V945.463H569.79V872.731Z" fill="#A5B4F3"/>
<path d="M712.245 872.731H569.791V1018.19H712.245V872.731Z" fill="#8FA2F0"/>
<path d="M712.245 872.731H569.791V945.463H712.245V872.731Z" fill="#1A40E1"/>
<path d="M854.674 872.731H712.221V1018.19H854.674V872.731Z" fill="#B5C1F5"/>
<path d="M854.674 872.731H712.221V945.463H854.674V872.731Z" fill="#9AABF2"/>
<path d="M997.128 872.731H854.675V1018.19H997.128V872.731Z" fill="#DBE1FA"/>
<path d="M997.128 872.731H854.675V945.463H997.128V872.731Z" fill="#7E94EE"/>
<path d="M1139.56 872.731H997.104V1018.19H1139.56V872.731Z" fill="#1B42E1"/>
<path d="M1139.56 872.731H997.104V945.463H1139.56V872.731Z" fill="#B6C3F6"/>
<path d="M1282.01 872.731H1139.56V1018.19H1282.01V872.731Z" fill="#3F60E6"/>
<path d="M1282.01 872.731H1139.56V945.463H1282.01V872.731Z" fill="#D9DFFA"/>
<path d="M1424.47 872.731H1282.01V1018.19H1424.47V872.731Z" fill="#758DED"/>
<path d="M1424.47 872.731H1282.01V945.463H1424.47V872.731Z" fill="#DBE1FA"/>
<path d="M1566.9 872.728H1424.45V1018.18H1566.9V872.728Z" fill="white"/>
<path d="M1495.67 872.731H1424.44V945.463H1495.67V872.731Z" fill="#A2B2F3"/>
<path d="M1495.67 872.731H1424.44V909.097H1495.67V872.731Z" fill="#E4E9FC"/>
<path d="M1566.9 872.731H1495.67V945.463H1566.9V872.731Z" fill="#6983EC"/>
<path d="M1566.9 872.731H1495.67V909.097H1566.9V872.731Z" fill="#AAB9F4"/>
<path d="M1495.67 945.463H1424.44V1018.19H1495.67V945.463Z" fill="#8398EF"/>
<path d="M1495.67 945.463H1424.44V981.829H1495.67V945.463Z" fill="#879BEF"/>
<path d="M1566.9 945.463H1495.67V1018.19H1566.9V945.463Z" fill="#4463E7"/>
<path d="M1566.9 945.463H1495.67V981.829H1566.9V945.463Z" fill="#C5CFF8"/>
<path d="M1709.34 872.728H1566.9V1018.18H1709.34V872.728Z" fill="white"/>
<path d="M1638.12 872.731H1566.9V945.463H1638.12V872.731Z" fill="#B8C4F6"/>
<path d="M1638.12 872.731H1566.9V909.097H1638.12V872.731Z" fill="#C5CFF7"/>
<path d="M1709.35 872.731H1638.12V945.463H1709.35V872.731Z" fill="#A8B7F4"/>
<path d="M1709.35 872.731H1638.12V909.097H1709.35V872.731Z" fill="#6A83EC"/>
<path d="M1638.12 945.463H1566.9V1018.19H1638.12V945.463Z" fill="#2E51E4"/>
<path d="M1638.12 945.463H1566.9V981.829H1638.12V945.463Z" fill="#748BED"/>
<path d="M1709.35 945.463H1638.12V1018.19H1709.35V945.463Z" fill="#8398EF"/>
<path d="M1709.35 945.463H1638.12V981.829H1709.35V945.463Z" fill="#7088EC"/>
<path d="M1851.8 872.731H1709.35V1018.19H1851.8V872.731Z" fill="#E5E9FC"/>
<path d="M1851.8 872.731H1709.35V945.463H1851.8V872.731Z" fill="#3457E5"/>
<path d="M1994.23 872.728H1851.79V1018.18H1994.23V872.728Z" fill="white"/>
<path d="M1923.01 872.731H1851.78V945.463H1923.01V872.731Z" fill="#E6EBFC"/>
<path d="M1923.01 872.731H1851.78V909.097H1923.01V872.731Z" fill="#4363E7"/>
<path d="M1994.23 872.731H1923.01V945.463H1994.23V872.731Z" fill="#8096EF"/>
<path d="M1994.23 872.731H1923.01V909.097H1994.23V872.731Z" fill="#D4DBF9"/>
<path d="M1923.01 945.463H1851.78V1018.19H1923.01V945.463Z" fill="#7C92EE"/>
<path d="M1923.01 945.463H1851.78V981.829H1923.01V945.463Z" fill="#A3B3F3"/>
<path d="M1994.23 945.463H1923.01V1018.19H1994.23V945.463Z" fill="#BAC5F6"/>
<path d="M1994.23 945.463H1923.01V981.829H1994.23V945.463Z" fill="#4A69E8"/>
<path d="M2136.68 872.728H1994.23V1018.18H2136.68V872.728Z" fill="white"/>
<path d="M2065.46 872.731H1994.23V945.463H2065.46V872.731Z" fill="#788FEE"/>
<path d="M2065.46 872.731H1994.23V909.097H2065.46V872.731Z" fill="#FAFBFE"/>
<path d="M2136.69 872.731H2065.46V945.463H2136.69V872.731Z" fill="#A5B5F3"/>
<path d="M2136.69 872.731H2065.46V909.097H2136.69V872.731Z" fill="#3255E4"/>
<path d="M2065.46 945.463H1994.23V1018.19H2065.46V945.463Z" fill="#8A9EF0"/>
<path d="M2065.46 945.463H1994.23V981.829H2065.46V945.463Z" fill="#DDE3FB"/>
<path d="M2136.69 945.463H2065.46V1018.19H2136.69V945.463Z" fill="#F9FAFE"/>
<path d="M2136.69 945.463H2065.46V981.829H2136.69V945.463Z" fill="#7990EE"/>
<path d="M2279.14 872.731H2136.69V1018.19H2279.14V872.731Z" fill="#A3B2F3"/>
<path d="M2279.14 872.731H2136.69V945.463H2279.14V872.731Z" fill="#E5E9FC"/>
<path d="M2421.57 872.728H2279.12V1018.18H2421.57V872.728Z" fill="white"/>
<path d="M2350.34 872.731H2279.12V945.463H2350.34V872.731Z" fill="#ADBBF4"/>
<path d="M2350.34 872.731H2279.12V909.097H2350.34V872.731Z" fill="#8599EF"/>
<path d="M2421.57 872.731H2350.34V945.463H2421.57V872.731Z" fill="#3053E4"/>
<path d="M2421.57 872.731H2350.34V909.097H2421.57V872.731Z" fill="#4968E7"/>
<path d="M2350.34 945.463H2279.12V1018.19H2350.34V945.463Z" fill="#4665E7"/>
<path d="M2350.34 945.463H2279.12V981.829H2350.34V945.463Z" fill="#F2F4FD"/>
<path d="M2421.57 945.463H2350.34V1018.19H2421.57V945.463Z" fill="#FEFFFF"/>
<path d="M2421.57 945.463H2350.34V981.829H2421.57V945.463Z" fill="#6781EB"/>
<path d="M2564.01 872.728H2421.57V1018.18H2564.01V872.728Z" fill="white"/>
<path d="M2492.8 872.731H2421.57V945.463H2492.8V872.731Z" fill="#B2BFF5"/>
<path d="M2492.8 872.731H2421.57V909.097H2492.8V872.731Z" fill="#5C78EA"/>
<path d="M2564.02 872.731H2492.8V945.463H2564.02V872.731Z" fill="#506DE8"/>
<path d="M2564.02 872.731H2492.8V909.097H2564.02V872.731Z" fill="#2E51E4"/>
<path d="M2492.8 945.463H2421.57V1018.19H2492.8V945.463Z" fill="#9BACF2"/>
<path d="M2492.8 945.463H2421.57V981.829H2492.8V945.463Z" fill="#C2CCF7"/>
<path d="M2564.02 945.463H2492.8V1018.19H2564.02V945.463Z" fill="#5F7AEA"/>
<path d="M2564.02 945.463H2492.8V981.829H2564.02V945.463Z" fill="#B1BEF5"/>
<path d="M142.445 1018.18H0V1163.64H142.445V1018.18Z" fill="white"/>
<path d="M71.2268 1018.17H0V1090.9H71.2268V1018.17Z" fill="#4262E6"/>
<path d="M71.2268 1018.17H0V1054.54H71.2268V1018.17Z" fill="#AAB8F4"/>
<path d="M142.453 1018.17H71.2266V1090.9H142.453V1018.17Z" fill="#637DEB"/>
<path d="M142.453 1018.17H71.2266V1054.54H142.453V1018.17Z" fill="#889CF0"/>
<path d="M71.2268 1090.9H0V1163.63H71.2268V1090.9Z" fill="#8599EF"/>
<path d="M71.2268 1090.9H0V1127.27H71.2268V1090.9Z" fill="#D6DDFA"/>
<path d="M142.453 1090.9H71.2266V1163.63H142.453V1090.9Z" fill="#99ABF2"/>
<path d="M142.453 1090.9H71.2266V1127.27H142.453V1090.9Z" fill="#C2CCF7"/>
<path d="M284.89 1018.18H142.445V1163.64H284.89V1018.18Z" fill="white"/>
<path d="M213.68 1018.17H142.453V1090.9H213.68V1018.17Z" fill="#3658E5"/>
<path d="M213.68 1018.17H142.453V1054.54H213.68V1018.17Z" fill="#9CADF2"/>
<path d="M284.884 1018.17H213.657V1090.9H284.884V1018.17Z" fill="#E5EAFC"/>
<path d="M284.884 1018.17H213.657V1054.54H284.884V1018.17Z" fill="#1A41E1"/>
<path d="M213.68 1090.9H142.453V1163.63H213.68V1090.9Z" fill="#5B76EA"/>
<path d="M213.68 1090.9H142.453V1127.27H213.68V1090.9Z" fill="#F9FAFE"/>
<path d="M284.884 1090.9H213.657V1163.63H284.884V1090.9Z" fill="#B0BDF5"/>
<path d="M284.884 1090.9H213.657V1127.27H284.884V1090.9Z" fill="#D0D8F9"/>
<path d="M427.335 1018.18H284.89V1163.64H427.335V1018.18Z" fill="white"/>
<path d="M356.111 1018.17H284.884V1090.9H356.111V1018.17Z" fill="#526FE8"/>
<path d="M356.111 1018.17H284.884V1054.54H356.111V1018.17Z" fill="#8599EF"/>
<path d="M427.337 1018.17H356.11V1090.9H427.337V1018.17Z" fill="#274CE3"/>
<path d="M427.337 1018.17H356.11V1054.54H427.337V1018.17Z" fill="#5471E9"/>
<path d="M356.111 1090.9H284.884V1163.63H356.111V1090.9Z" fill="#899DF0"/>
<path d="M356.111 1090.9H284.884V1127.27H356.111V1090.9Z" fill="#4666E7"/>
<path d="M427.337 1090.9H356.11V1163.63H427.337V1090.9Z" fill="#D6DDFA"/>
<path d="M427.337 1090.9H356.11V1127.27H427.337V1090.9Z" fill="#516EE8"/>
<path d="M569.79 1018.17H427.337V1163.63H569.79V1018.17Z" fill="#8599EF"/>
<path d="M569.79 1018.17H427.337V1090.9H569.79V1018.17Z" fill="#DFE4FB"/>
<path d="M712.245 1018.17H569.791V1163.63H712.245V1018.17Z" fill="#F9FAFE"/>
<path d="M712.245 1018.17H569.791V1090.9H712.245V1018.17Z" fill="#E8ECFC"/>
<path d="M854.671 1018.18H712.226V1163.64H854.671V1018.18Z" fill="white"/>
<path d="M783.447 1018.17H712.221V1090.9H783.447V1018.17Z" fill="#D2D9F9"/>
<path d="M783.447 1018.17H712.221V1054.54H783.447V1018.17Z" fill="#BCC7F6"/>
<path d="M854.674 1018.17H783.447V1090.9H854.674V1018.17Z" fill="#516EE8"/>
<path d="M854.674 1018.17H783.447V1054.54H854.674V1018.17Z" fill="#3355E4"/>
<path d="M783.447 1090.9H712.221V1163.63H783.447V1090.9Z" fill="#5E79EA"/>
<path d="M783.447 1090.9H712.221V1127.27H783.447V1090.9Z" fill="#1D43E2"/>
<path d="M854.674 1090.9H783.447V1163.63H854.674V1090.9Z" fill="#EDF0FD"/>
<path d="M854.674 1090.9H783.447V1127.27H854.674V1090.9Z" fill="#5F7AEA"/>
<path d="M997.115 1018.18H854.67V1163.64H997.115V1018.18Z" fill="white"/>
<path d="M925.902 1018.17H854.675V1090.9H925.902V1018.17Z" fill="#8499EF"/>
<path d="M925.902 1018.17H854.675V1054.54H925.902V1018.17Z" fill="#8297EF"/>
<path d="M997.128 1018.17H925.901V1090.9H997.128V1018.17Z" fill="#6680EB"/>
<path d="M997.128 1018.17H925.901V1054.54H997.128V1018.17Z" fill="#E5E9FC"/>
<path d="M925.902 1090.9H854.675V1163.63H925.902V1090.9Z" fill="#3456E5"/>
<path d="M925.902 1090.9H854.675V1127.27H925.902V1090.9Z" fill="#A4B3F3"/>
<path d="M997.128 1090.9H925.901V1163.63H997.128V1090.9Z" fill="#899DF0"/>
<path d="M997.128 1090.9H925.901V1127.27H997.128V1090.9Z" fill="#FBFCFE"/>
<path d="M1139.56 1018.17H997.104V1163.63H1139.56V1018.17Z" fill="#788FED"/>
<path d="M1139.56 1018.17H997.104V1090.9H1139.56V1018.17Z" fill="#EAEEFC"/>
<path d="M1282.01 1018.17H1139.56V1163.63H1282.01V1018.17Z" fill="#3658E5"/>
<path d="M1282.01 1018.17H1139.56V1090.9H1282.01V1018.17Z" fill="#778EED"/>
<path d="M1424.47 1018.17H1282.01V1163.63H1424.47V1018.17Z" fill="#4463E7"/>
<path d="M1424.47 1018.17H1282.01V1090.9H1424.47V1018.17Z" fill="#1E44E2"/>
<path d="M1566.89 1018.17H1424.44V1163.63H1566.89V1018.17Z" fill="#3E5FE6"/>
<path d="M1566.89 1018.17H1424.44V1090.9H1566.89V1018.17Z" fill="#98A9F2"/>
<path d="M1709.35 1018.17H1566.9V1163.63H1709.35V1018.17Z" fill="#C9D2F8"/>
<path d="M1709.35 1018.17H1566.9V1090.9H1709.35V1018.17Z" fill="#ADBBF4"/>
<path d="M1851.8 1018.17H1709.35V1163.63H1851.8V1018.17Z" fill="#8B9FF0"/>
<path d="M1851.8 1018.17H1709.35V1090.9H1851.8V1018.17Z" fill="#C2CCF7"/>
<path d="M1994.23 1018.17H1851.78V1163.63H1994.23V1018.17Z" fill="#B2BFF5"/>
<path d="M1994.23 1018.17H1851.78V1090.9H1994.23V1018.17Z" fill="#3457E5"/>
<path d="M2136.68 1018.18H1994.23V1163.64H2136.68V1018.18Z" fill="white"/>
<path d="M2065.46 1018.17H1994.23V1090.9H2065.46V1018.17Z" fill="#B6C3F6"/>
<path d="M2065.46 1018.17H1994.23V1054.54H2065.46V1018.17Z" fill="#E0E5FB"/>
<path d="M2136.69 1018.17H2065.46V1090.9H2136.69V1018.17Z" fill="#5E79EA"/>
<path d="M2136.69 1018.17H2065.46V1054.54H2136.69V1018.17Z" fill="#DDE3FB"/>
<path d="M2065.46 1090.9H1994.23V1163.63H2065.46V1090.9Z" fill="#516EE8"/>
<path d="M2065.46 1090.9H1994.23V1127.27H2065.46V1090.9Z" fill="#F9FAFE"/>
<path d="M2136.69 1090.9H2065.46V1163.63H2136.69V1090.9Z" fill="#2449E3"/>
<path d="M2136.69 1090.9H2065.46V1127.27H2136.69V1090.9Z" fill="#6F87EC"/>
<path d="M2279.14 1018.17H2136.69V1163.63H2279.14V1018.17Z" fill="#4463E7"/>
<path d="M2279.14 1018.17H2136.69V1090.9H2279.14V1018.17Z" fill="#8C9FF0"/>
<path d="M2421.57 1018.17H2279.12V1163.63H2421.57V1018.17Z" fill="#D7DDFA"/>
<path d="M2421.57 1018.17H2279.12V1090.9H2421.57V1018.17Z" fill="#748BED"/>
<path d="M2564.02 1018.17H2421.57V1163.63H2564.02V1018.17Z" fill="#B1BEF5"/>
<path d="M2564.02 1018.17H2421.57V1090.9H2564.02V1018.17Z" fill="#9FAFF3"/>
<path d="M142.454 1163.63H0V1309.1H142.454V1163.63Z" fill="#7C92EE"/>
<path d="M142.454 1163.63H0V1236.37H142.454V1163.63Z" fill="#2C50E4"/>
<path d="M284.907 1163.63H142.453V1309.1H284.907V1163.63Z" fill="#3E5FE6"/>
<path d="M284.907 1163.63H142.453V1236.37H284.907V1163.63Z" fill="#8499EF"/>
<path d="M427.337 1163.63H284.884V1309.1H427.337V1163.63Z" fill="#D6DDFA"/>
<path d="M427.337 1163.63H284.884V1236.37H427.337V1163.63Z" fill="#3758E5"/>
<path d="M569.78 1163.64H427.335V1309.09H569.78V1163.64Z" fill="white"/>
<path d="M498.564 1163.63H427.337V1236.37H498.564V1163.63Z" fill="#C2CCF7"/>
<path d="M498.564 1163.63H427.337V1200H498.564V1163.63Z" fill="#3E5EE6"/>
<path d="M569.791 1163.63H498.564V1236.37H569.791V1163.63Z" fill="#8EA1F0"/>
<path d="M569.791 1163.63H498.564V1200H569.791V1163.63Z" fill="#7088EC"/>
<path d="M498.564 1236.37H427.337V1309.1H498.564V1236.37Z" fill="#B5C1F5"/>
<path d="M498.564 1236.37H427.337V1272.73H498.564V1236.37Z" fill="#3053E4"/>
<path d="M569.791 1236.37H498.564V1309.1H569.791V1236.37Z" fill="#FDFEFF"/>
<path d="M569.791 1236.37H498.564V1272.73H569.791V1236.37Z" fill="#F4F6FE"/>
<path d="M712.245 1163.63H569.791V1309.1H712.245V1163.63Z" fill="#B8C4F6"/>
<path d="M712.245 1163.63H569.791V1236.37H712.245V1163.63Z" fill="#2A4EE3"/>
<path d="M854.674 1163.63H712.221V1309.1H854.674V1163.63Z" fill="#3C5DE6"/>
<path d="M854.674 1163.63H712.221V1236.37H854.674V1163.63Z" fill="#8C9FF0"/>
<path d="M997.128 1163.63H854.675V1309.1H997.128V1163.63Z" fill="#96A8F1"/>
<path d="M997.128 1163.63H854.675V1236.37H997.128V1163.63Z" fill="#CCD4F8"/>
<path d="M1139.56 1163.64H997.115V1309.09H1139.56V1163.64Z" fill="white"/>
<path d="M1068.33 1163.63H997.104V1236.37H1068.33V1163.63Z" fill="#4C6AE8"/>
<path d="M1068.33 1163.63H997.104V1200H1068.33V1163.63Z" fill="#3D5EE6"/>
<path d="M1139.56 1163.63H1068.33V1236.37H1139.56V1163.63Z" fill="#ECEFFD"/>
<path d="M1139.56 1163.63H1068.33V1200H1139.56V1163.63Z" fill="#4262E7"/>
<path d="M1068.33 1236.37H997.104V1309.1H1068.33V1236.37Z" fill="#6F87EC"/>
<path d="M1068.33 1236.37H997.104V1272.73H1068.33V1236.37Z" fill="#AAB8F4"/>
<path d="M1139.56 1236.37H1068.33V1309.1H1139.56V1236.37Z" fill="#ECEFFD"/>
<path d="M1139.56 1236.37H1068.33V1272.73H1139.56V1236.37Z" fill="#9EAEF2"/>
<path d="M1282.01 1163.63H1139.56V1309.1H1282.01V1163.63Z" fill="#A1B1F3"/>
<path d="M1282.01 1163.63H1139.56V1236.37H1282.01V1163.63Z" fill="#4766E7"/>
<path d="M1424.45 1163.64H1282.01V1309.09H1424.45V1163.64Z" fill="white"/>
<path d="M1353.24 1163.63H1282.01V1236.37H1353.24V1163.63Z" fill="#D9DFFA"/>
<path d="M1353.24 1163.63H1282.01V1200H1353.24V1163.63Z" fill="#3A5BE5"/>
<path d="M1424.47 1163.63H1353.24V1236.37H1424.47V1163.63Z" fill="#8A9EF0"/>
<path d="M1424.47 1163.63H1353.24V1200H1424.47V1163.63Z" fill="#DEE3FB"/>
<path d="M1353.24 1236.37H1282.01V1309.1H1353.24V1236.37Z" fill="#EAEEFC"/>
<path d="M1353.24 1236.37H1282.01V1272.73H1353.24V1236.37Z" fill="#DCE2FA"/>
<path d="M1424.47 1236.37H1353.24V1309.1H1424.47V1236.37Z" fill="#657FEB"/>
<path d="M1424.47 1236.37H1353.24V1272.73H1424.47V1236.37Z" fill="#5F7AEA"/>
<path d="M1566.89 1163.63H1424.44V1309.1H1566.89V1163.63Z" fill="#EDF0FD"/>
<path d="M1566.89 1163.63H1424.44V1236.37H1566.89V1163.63Z" fill="#6D85EC"/>
<path d="M1709.35 1163.63H1566.9V1309.1H1709.35V1163.63Z" fill="#CAD3F8"/>
<path d="M1709.35 1163.63H1566.9V1236.37H1709.35V1163.63Z" fill="#D3DBF9"/>
<path d="M1851.8 1163.63H1709.35V1309.1H1851.8V1163.63Z" fill="#8DA0F0"/>
<path d="M1851.8 1163.63H1709.35V1236.37H1851.8V1163.63Z" fill="#5774E9"/>
<path d="M1994.23 1163.63H1851.78V1309.1H1994.23V1163.63Z" fill="#B8C4F6"/>
<path d="M1994.23 1163.63H1851.78V1236.37H1994.23V1163.63Z" fill="#C4CEF7"/>
<path d="M2136.69 1163.63H1994.23V1309.1H2136.69V1163.63Z" fill="#1A40E1"/>
<path d="M2136.69 1163.63H1994.23V1236.37H2136.69V1163.63Z" fill="#5774E9"/>
<path d="M2279.14 1163.63H2136.69V1309.1H2279.14V1163.63Z" fill="#2449E3"/>
<path d="M2279.14 1163.63H2136.69V1236.37H2279.14V1163.63Z" fill="#4262E6"/>
<path d="M2421.57 1163.63H2279.12V1309.1H2421.57V1163.63Z" fill="#99AAF2"/>
<path d="M2421.57 1163.63H2279.12V1236.37H2421.57V1163.63Z" fill="#D5DCFA"/>
<path d="M2564.02 1163.63H2421.57V1309.1H2564.02V1163.63Z" fill="#5673E9"/>
<path d="M2564.02 1163.63H2421.57V1236.37H2564.02V1163.63Z" fill="#3D5DE6"/>
<path d="M142.454 1309.1H0V1454.56H142.454V1309.1Z" fill="#899DF0"/>
<path d="M142.454 1309.1H0V1381.83H142.454V1309.1Z" fill="#AFBCF5"/>
<path d="M284.907 1309.1H142.453V1454.56H284.907V1309.1Z" fill="#DAE1FA"/>
<path d="M284.907 1309.1H142.453V1381.83H284.907V1309.1Z" fill="#2C4FE4"/>
<path d="M427.335 1309.09H284.89V1454.55H427.335V1309.09Z" fill="white"/>
<path d="M356.111 1309.1H284.884V1381.83H356.111V1309.1Z" fill="#90A2F1"/>
<path d="M356.111 1309.1H284.884V1345.46H356.111V1309.1Z" fill="#91A3F1"/>
<path d="M427.337 1309.1H356.11V1381.83H427.337V1309.1Z" fill="#7D93EE"/>
<path d="M427.337 1309.1H356.11V1345.46H427.337V1309.1Z" fill="#748CED"/>
<path d="M356.111 1381.83H284.884V1454.56H356.111V1381.83Z" fill="#506DE8"/>
<path d="M356.111 1381.83H284.884V1418.19H356.111V1381.83Z" fill="#DCE2FA"/>
<path d="M427.337 1381.83H356.11V1454.56H427.337V1381.83Z" fill="#DFE5FB"/>
<path d="M427.337 1381.83H356.11V1418.19H427.337V1381.83Z" fill="#A2B1F3"/>
<path d="M569.79 1309.1H427.337V1454.56H569.79V1309.1Z" fill="#3C5DE6"/>
<path d="M569.79 1309.1H427.337V1381.83H569.79V1309.1Z" fill="#6E86EC"/>
<path d="M712.245 1309.1H569.791V1454.56H712.245V1309.1Z" fill="#4A69E8"/>
<path d="M712.245 1309.1H569.791V1381.83H712.245V1309.1Z" fill="#6C84EC"/>
<path d="M854.674 1309.1H712.221V1454.56H854.674V1309.1Z" fill="#7990EE"/>
<path d="M854.674 1309.1H712.221V1381.83H854.674V1309.1Z" fill="#1B42E1"/>
<path d="M997.128 1309.1H854.675V1454.56H997.128V1309.1Z" fill="#B1BEF5"/>
<path d="M997.128 1309.1H854.675V1381.83H997.128V1309.1Z" fill="#869AEF"/>
<path d="M1139.56 1309.1H997.104V1454.56H1139.56V1309.1Z" fill="#2046E2"/>
<path d="M1139.56 1309.1H997.104V1381.83H1139.56V1309.1Z" fill="#1B42E1"/>
<path d="M1282.01 1309.1H1139.56V1454.56H1282.01V1309.1Z" fill="#2D50E4"/>
<path d="M1282.01 1309.1H1139.56V1381.83H1282.01V1309.1Z" fill="#3E5EE6"/>
<path d="M1424.47 1309.1H1282.01V1454.56H1424.47V1309.1Z" fill="#3E5EE6"/>
<path d="M1424.47 1309.1H1282.01V1381.83H1424.47V1309.1Z" fill="#F8F9FE"/>
<path d="M1566.89 1309.1H1424.44V1454.56H1566.89V1309.1Z" fill="#E3E8FB"/>
<path d="M1566.89 1309.1H1424.44V1381.83H1566.89V1309.1Z" fill="#5774E9"/>
<path d="M1709.35 1309.1H1566.9V1454.56H1709.35V1309.1Z" fill="#2449E3"/>
<path d="M1709.35 1309.1H1566.9V1381.83H1709.35V1309.1Z" fill="#2D51E4"/>
<path d="M1851.8 1309.1H1709.35V1454.56H1851.8V1309.1Z" fill="#D8DEFA"/>
<path d="M1851.8 1309.1H1709.35V1381.83H1851.8V1309.1Z" fill="#2449E3"/>
<path d="M1994.23 1309.1H1851.78V1454.56H1994.23V1309.1Z" fill="#274CE3"/>
<path d="M1994.23 1309.1H1851.78V1381.83H1994.23V1309.1Z" fill="#3759E5"/>
<path d="M2136.68 1309.09H1994.23V1454.55H2136.68V1309.09Z" fill="white"/>
<path d="M2065.46 1309.1H1994.23V1381.83H2065.46V1309.1Z" fill="#F0F2FD"/>
<path d="M2065.46 1309.1H1994.23V1345.46H2065.46V1309.1Z" fill="#4B6AE8"/>
<path d="M2136.69 1309.1H2065.46V1381.83H2136.69V1309.1Z" fill="#748BED"/>
<path d="M2136.69 1309.1H2065.46V1345.46H2136.69V1309.1Z" fill="#3E5FE6"/>
<path d="M2065.46 1381.83H1994.23V1454.56H2065.46V1381.83Z" fill="#5E79EA"/>
<path d="M2065.46 1381.83H1994.23V1418.19H2065.46V1381.83Z" fill="#E9EDFC"/>
<path d="M2136.69 1381.83H2065.46V1454.56H2136.69V1381.83Z" fill="#5571E9"/>
<path d="M2136.69 1381.83H2065.46V1418.19H2136.69V1381.83Z" fill="#BBC7F6"/>
<path d="M2279.12 1309.09H2136.68V1454.55H2279.12V1309.09Z" fill="white"/>
<path d="M2207.91 1309.1H2136.69V1381.83H2207.91V1309.1Z" fill="#2C50E4"/>
<path d="M2207.91 1309.1H2136.69V1345.46H2207.91V1309.1Z" fill="#4161E6"/>
<path d="M2279.12 1309.1H2207.89V1381.83H2279.12V1309.1Z" fill="#627DEB"/>
<path d="M2279.12 1309.1H2207.89V1345.46H2279.12V1309.1Z" fill="#D9E0FA"/>
<path d="M2207.91 1381.83H2136.69V1454.56H2207.91V1381.83Z" fill="#DCE2FB"/>
<path d="M2207.91 1381.83H2136.69V1418.19H2207.91V1381.83Z" fill="#A0B0F3"/>
<path d="M2279.12 1381.83H2207.89V1454.56H2279.12V1381.83Z" fill="#8196EF"/>
<path d="M2279.12 1381.83H2207.89V1418.19H2279.12V1381.83Z" fill="#395BE5"/>
<path d="M2421.57 1309.1H2279.12V1454.56H2421.57V1309.1Z" fill="#F7F9FE"/>
<path d="M2421.57 1309.1H2279.12V1381.83H2421.57V1309.1Z" fill="#274CE3"/>
<path d="M2564.02 1309.1H2421.57V1454.56H2564.02V1309.1Z" fill="#607BEA"/>
<path d="M2564.02 1309.1H2421.57V1381.83H2564.02V1309.1Z" fill="#E4E9FC"/>
<path d="M142.445 1454.55H0V1600H142.445V1454.55Z" fill="white"/>
<path d="M71.2268 1454.54H0V1527.27H71.2268V1454.54Z" fill="#7F95EE"/>
<path d="M71.2268 1454.54H0V1490.9H71.2268V1454.54Z" fill="#6A83EC"/>
<path d="M142.453 1454.54H71.2266V1527.27H142.453V1454.54Z" fill="#E4E9FB"/>
<path d="M142.453 1454.54H71.2266V1490.9H142.453V1454.54Z" fill="#C8D2F8"/>
<path d="M71.2268 1527.27H0V1600H71.2268V1527.27Z" fill="#E8ECFC"/>
<path d="M71.2268 1527.27H0V1563.63H71.2268V1527.27Z" fill="#4161E6"/>
<path d="M142.453 1527.27H71.2266V1600H142.453V1527.27Z" fill="#294DE3"/>
<path d="M142.453 1527.27H71.2266V1563.63H142.453V1527.27Z" fill="#BFCAF7"/>
<path d="M284.907 1454.54H142.453V1600H284.907V1454.54Z" fill="#6680EB"/>
<path d="M284.907 1454.54H142.453V1527.27H284.907V1454.54Z" fill="#7A91EE"/>
<path d="M427.337 1454.54H284.884V1600H427.337V1454.54Z" fill="#CAD3F8"/>
<path d="M427.337 1454.54H284.884V1527.27H427.337V1454.54Z" fill="#7990EE"/>
<path d="M569.79 1454.54H427.337V1600H569.79V1454.54Z" fill="#2046E2"/>
<path d="M569.79 1454.54H427.337V1527.27H569.79V1454.54Z" fill="#98A9F2"/>
<path d="M712.225 1454.55H569.78V1600H712.225V1454.55Z" fill="white"/>
<path d="M641.018 1454.54H569.791V1527.27H641.018V1454.54Z" fill="#788FEE"/>
<path d="M641.018 1454.54H569.791V1490.9H641.018V1454.54Z" fill="#9CADF2"/>
<path d="M712.221 1454.54H640.994V1527.27H712.221V1454.54Z" fill="#8197EF"/>
<path d="M712.221 1454.54H640.994V1490.9H712.221V1454.54Z" fill="#AFBDF5"/>
<path d="M641.018 1527.27H569.791V1600H641.018V1527.27Z" fill="#E8ECFC"/>
<path d="M641.018 1527.27H569.791V1563.63H641.018V1527.27Z" fill="#4D6BE8"/>
<path d="M712.221 1527.27H640.994V1600H712.221V1527.27Z" fill="#9FAFF3"/>
<path d="M712.221 1527.27H640.994V1563.63H712.221V1527.27Z" fill="#ACBAF4"/>
<path d="M854.671 1454.55H712.226V1600H854.671V1454.55Z" fill="white"/>
<path d="M783.447 1454.54H712.221V1527.27H783.447V1454.54Z" fill="#8297EF"/>
<path d="M783.447 1454.54H712.221V1490.9H783.447V1454.54Z" fill="#1B41E1"/>
<path d="M854.674 1454.54H783.447V1527.27H854.674V1454.54Z" fill="#CBD4F8"/>
<path d="M854.674 1454.54H783.447V1490.9H854.674V1454.54Z" fill="#8B9FF0"/>
<path d="M783.447 1527.27H712.221V1600H783.447V1527.27Z" fill="#4161E6"/>
<path d="M783.447 1527.27H712.221V1563.63H783.447V1527.27Z" fill="#B7C3F6"/>
<path d="M854.674 1527.27H783.447V1600H854.674V1527.27Z" fill="#778EED"/>
<path d="M854.674 1527.27H783.447V1563.63H854.674V1527.27Z" fill="#2046E2"/>
<path d="M997.128 1454.54H854.675V1600H997.128V1454.54Z" fill="#E6EAFC"/>
<path d="M997.128 1454.54H854.675V1527.27H997.128V1454.54Z" fill="#FCFDFF"/>
<path d="M1139.56 1454.54H997.104V1600H1139.56V1454.54Z" fill="#BAC6F6"/>
<path d="M1139.56 1454.54H997.104V1527.27H1139.56V1454.54Z" fill="#6E86EC"/>
<path d="M1282.01 1454.54H1139.56V1600H1282.01V1454.54Z" fill="#7B91EE"/>
<path d="M1282.01 1454.54H1139.56V1527.27H1282.01V1454.54Z" fill="#5A76EA"/>
<path d="M1424.45 1454.55H1282.01V1600H1424.45V1454.55Z" fill="white"/>
<path d="M1353.24 1454.54H1282.01V1527.27H1353.24V1454.54Z" fill="#6A83EC"/>
<path d="M1353.24 1454.54H1282.01V1490.9H1353.24V1454.54Z" fill="#657FEB"/>
<path d="M1424.47 1454.54H1353.24V1527.27H1424.47V1454.54Z" fill="#778EED"/>
<path d="M1424.47 1454.54H1353.24V1490.9H1424.47V1454.54Z" fill="#FEFEFF"/>
<path d="M1353.24 1527.27H1282.01V1600H1353.24V1527.27Z" fill="#3E5EE6"/>
<path d="M1353.24 1527.27H1282.01V1563.63H1353.24V1527.27Z" fill="#91A4F1"/>
<path d="M1424.47 1527.27H1353.24V1600H1424.47V1527.27Z" fill="#657FEB"/>
<path d="M1424.47 1527.27H1353.24V1563.63H1424.47V1527.27Z" fill="#4C6AE8"/>
<path d="M1566.89 1454.54H1424.44V1600H1566.89V1454.54Z" fill="#A3B2F3"/>
<path d="M1566.89 1454.54H1424.44V1527.27H1566.89V1454.54Z" fill="#617BEA"/>
<path d="M1709.35 1454.54H1566.9V1600H1709.35V1454.54Z" fill="#B8C4F6"/>
<path d="M1709.35 1454.54H1566.9V1527.27H1709.35V1454.54Z" fill="#C0CBF7"/>
<path d="M1851.79 1454.55H1709.34V1600H1851.79V1454.55Z" fill="white"/>
<path d="M1780.58 1454.54H1709.35V1527.27H1780.58V1454.54Z" fill="#8499EF"/>
<path d="M1780.58 1454.54H1709.35V1490.9H1780.58V1454.54Z" fill="#5A76EA"/>
<path d="M1851.78 1454.54H1780.55V1527.27H1851.78V1454.54Z" fill="#6C85EC"/>
<path d="M1851.78 1454.54H1780.55V1490.9H1851.78V1454.54Z" fill="#F5F6FE"/>
<path d="M1780.58 1527.27H1709.35V1600H1780.58V1527.27Z" fill="#2B4FE3"/>
<path d="M1780.58 1527.27H1709.35V1563.63H1780.58V1527.27Z" fill="#5D79EA"/>
<path d="M1851.78 1527.27H1780.55V1600H1851.78V1527.27Z" fill="#99ABF2"/>
<path d="M1851.78 1527.27H1780.55V1563.63H1851.78V1527.27Z" fill="#748BED"/>
<path d="M1994.23 1454.54H1851.78V1600H1994.23V1454.54Z" fill="#274BE3"/>
<path d="M1994.23 1454.54H1851.78V1527.27H1994.23V1454.54Z" fill="#4F6DE8"/>
<path d="M2136.69 1454.54H1994.23V1600H2136.69V1454.54Z" fill="#274BE3"/>
<path d="M2136.69 1454.54H1994.23V1527.27H2136.69V1454.54Z" fill="#BEC9F6"/>
<path d="M2279.14 1454.54H2136.69V1600H2279.14V1454.54Z" fill="#C7D1F8"/>
<path d="M2279.14 1454.54H2136.69V1527.27H2279.14V1454.54Z" fill="#2247E2"/>
<path d="M2421.57 1454.54H2279.12V1600H2421.57V1454.54Z" fill="#3759E5"/>
<path d="M2421.57 1454.54H2279.12V1527.27H2421.57V1454.54Z" fill="#AAB9F4"/>
<path d="M2564.01 1454.55H2421.57V1600H2564.01V1454.55Z" fill="white"/>
<path d="M2492.8 1454.54H2421.57V1527.27H2492.8V1454.54Z" fill="#F3F5FD"/>
<path d="M2492.8 1454.54H2421.57V1490.9H2492.8V1454.54Z" fill="#3A5BE5"/>
<path d="M2564.02 1454.54H2492.8V1527.27H2564.02V1454.54Z" fill="#F3F5FD"/>
<path d="M2564.02 1454.54H2492.8V1490.9H2564.02V1454.54Z" fill="#1F45E2"/>
<path d="M2492.8 1527.27H2421.57V1600H2492.8V1527.27Z" fill="#EEF0FD"/>
<path d="M2492.8 1527.27H2421.57V1563.63H2492.8V1527.27Z" fill="#A5B4F3"/>
<path d="M2564.02 1527.27H2492.8V1600H2564.02V1527.27Z" fill="#A5B5F3"/>
<path d="M2564.02 1527.27H2492.8V1563.63H2564.02V1527.27Z" fill="#F9FAFE"/>
</g>
<defs>
<clipPath id="clip0_2094_4153">
<rect width="2564" height="1600" fill="white"/>
</clipPath>
</defs>
</svg>
